G04 #@! TF.GenerationSoftware,KiCad,Pcbnew,(5.0.0-rc3-dev-2-g101b68b61)*
G04 #@! TF.CreationDate,2018-07-09T03:14:57+02:00*
G04 #@! TF.ProjectId,L7805 reg,4C37383035207265672E6B696361645F,rev?*
G04 #@! TF.SameCoordinates,Original*
G04 #@! TF.FileFunction,Legend,Top*
G04 #@! TF.FilePolarity,Positive*
%FSLAX46Y46*%
G04 Gerber Fmt 4.6, Leading zero omitted, Abs format (unit mm)*
G04 Created by KiCad (PCBNEW (5.0.0-rc3-dev-2-g101b68b61)) date 07/09/18 03:14:57*
%MOMM*%
%LPD*%
G01*
G04 APERTURE LIST*
%ADD10C,0.120000*%
%ADD11C,0.150000*%
G04 APERTURE END LIST*
D10*
G04 #@! TO.C,J2*
X77100000Y-66520000D02*
X77100000Y-69120000D01*
X62400000Y-66520000D02*
X77100000Y-66520000D01*
X77100000Y-75720000D02*
X75200000Y-75720000D01*
X77100000Y-73020000D02*
X77100000Y-75720000D01*
X62400000Y-75720000D02*
X62400000Y-66520000D01*
X71200000Y-75720000D02*
X62400000Y-75720000D01*
G04 #@! TO.C,C1*
X82250000Y-69220000D02*
X80150000Y-69220000D01*
X80150000Y-69220000D02*
X80150000Y-74720000D01*
X82250000Y-69220000D02*
X82250000Y-74720000D01*
G04 #@! TO.C,C2*
X83700000Y-78270000D02*
X82700000Y-78270000D01*
X82700000Y-79970000D02*
X83700000Y-79970000D01*
G04 #@! TO.C,D1*
X82750000Y-81320000D02*
X82750000Y-83920000D01*
X81650000Y-81320000D02*
X81650000Y-83920000D01*
X82750000Y-81320000D02*
X81650000Y-81320000D01*
G04 #@! TO.C,J1*
X96010000Y-87660000D02*
X96010000Y-77500000D01*
X88390000Y-87660000D02*
X96010000Y-87660000D01*
X88390000Y-77500000D02*
X88390000Y-87660000D01*
X96010000Y-77500000D02*
X88390000Y-77500000D01*
X94740000Y-77500000D02*
X94740000Y-87660000D01*
G04 #@! TO.C,R1*
X86080000Y-82870000D02*
X86080000Y-84070000D01*
X84320000Y-84070000D02*
X84320000Y-82870000D01*
G04 #@! TO.C,U1*
X86730000Y-76300000D02*
X85630000Y-76300000D01*
X86730000Y-76570000D02*
X86730000Y-76300000D01*
X88230000Y-76570000D02*
X86730000Y-76570000D01*
X86730000Y-69940000D02*
X83900000Y-69940000D01*
X86730000Y-69670000D02*
X86730000Y-69940000D01*
X88230000Y-69670000D02*
X86730000Y-69670000D01*
G04 #@! TO.C,MK1*
D11*
X66852376Y-80572380D02*
X66852376Y-79572380D01*
X67185709Y-80286666D01*
X67519042Y-79572380D01*
X67519042Y-80572380D01*
X67995233Y-80572380D02*
X67995233Y-79572380D01*
X68566661Y-80572380D02*
X68138090Y-80000952D01*
X68566661Y-79572380D02*
X67995233Y-80143809D01*
X69519042Y-80572380D02*
X68947614Y-80572380D01*
X69233328Y-80572380D02*
X69233328Y-79572380D01*
X69138090Y-79715238D01*
X69042852Y-79810476D01*
X68947614Y-79858095D01*
G04 #@! TO.C,J2*
X67416666Y-76322380D02*
X67416666Y-77036666D01*
X67369047Y-77179523D01*
X67273809Y-77274761D01*
X67130952Y-77322380D01*
X67035714Y-77322380D01*
X67845238Y-76417619D02*
X67892857Y-76370000D01*
X67988095Y-76322380D01*
X68226190Y-76322380D01*
X68321428Y-76370000D01*
X68369047Y-76417619D01*
X68416666Y-76512857D01*
X68416666Y-76608095D01*
X68369047Y-76750952D01*
X67797619Y-77322380D01*
X68416666Y-77322380D01*
G04 #@! TO.C,C1*
X84107142Y-73286666D02*
X84154761Y-73334285D01*
X84202380Y-73477142D01*
X84202380Y-73572380D01*
X84154761Y-73715238D01*
X84059523Y-73810476D01*
X83964285Y-73858095D01*
X83773809Y-73905714D01*
X83630952Y-73905714D01*
X83440476Y-73858095D01*
X83345238Y-73810476D01*
X83250000Y-73715238D01*
X83202380Y-73572380D01*
X83202380Y-73477142D01*
X83250000Y-73334285D01*
X83297619Y-73286666D01*
X84202380Y-72334285D02*
X84202380Y-72905714D01*
X84202380Y-72620000D02*
X83202380Y-72620000D01*
X83345238Y-72715238D01*
X83440476Y-72810476D01*
X83488095Y-72905714D01*
G04 #@! TO.C,C2*
X83033333Y-81227142D02*
X82985714Y-81274761D01*
X82842857Y-81322380D01*
X82747619Y-81322380D01*
X82604761Y-81274761D01*
X82509523Y-81179523D01*
X82461904Y-81084285D01*
X82414285Y-80893809D01*
X82414285Y-80750952D01*
X82461904Y-80560476D01*
X82509523Y-80465238D01*
X82604761Y-80370000D01*
X82747619Y-80322380D01*
X82842857Y-80322380D01*
X82985714Y-80370000D01*
X83033333Y-80417619D01*
X83414285Y-80417619D02*
X83461904Y-80370000D01*
X83557142Y-80322380D01*
X83795238Y-80322380D01*
X83890476Y-80370000D01*
X83938095Y-80417619D01*
X83985714Y-80512857D01*
X83985714Y-80608095D01*
X83938095Y-80750952D01*
X83366666Y-81322380D01*
X83985714Y-81322380D01*
G04 #@! TO.C,D1*
X84102380Y-83858095D02*
X83102380Y-83858095D01*
X83102380Y-83620000D01*
X83150000Y-83477142D01*
X83245238Y-83381904D01*
X83340476Y-83334285D01*
X83530952Y-83286666D01*
X83673809Y-83286666D01*
X83864285Y-83334285D01*
X83959523Y-83381904D01*
X84054761Y-83477142D01*
X84102380Y-83620000D01*
X84102380Y-83858095D01*
X84102380Y-82334285D02*
X84102380Y-82905714D01*
X84102380Y-82620000D02*
X83102380Y-82620000D01*
X83245238Y-82715238D01*
X83340476Y-82810476D01*
X83388095Y-82905714D01*
G04 #@! TO.C,J1*
X86652380Y-80453333D02*
X87366666Y-80453333D01*
X87509523Y-80500952D01*
X87604761Y-80596190D01*
X87652380Y-80739047D01*
X87652380Y-80834285D01*
X87652380Y-79453333D02*
X87652380Y-80024761D01*
X87652380Y-79739047D02*
X86652380Y-79739047D01*
X86795238Y-79834285D01*
X86890476Y-79929523D01*
X86938095Y-80024761D01*
G04 #@! TO.C,R1*
X87352380Y-83636666D02*
X86876190Y-83970000D01*
X87352380Y-84208095D02*
X86352380Y-84208095D01*
X86352380Y-83827142D01*
X86400000Y-83731904D01*
X86447619Y-83684285D01*
X86542857Y-83636666D01*
X86685714Y-83636666D01*
X86780952Y-83684285D01*
X86828571Y-83731904D01*
X86876190Y-83827142D01*
X86876190Y-84208095D01*
X87352380Y-82684285D02*
X87352380Y-83255714D01*
X87352380Y-82970000D02*
X86352380Y-82970000D01*
X86495238Y-83065238D01*
X86590476Y-83160476D01*
X86638095Y-83255714D01*
G04 #@! TO.C,U1*
X88438095Y-68072380D02*
X88438095Y-68881904D01*
X88485714Y-68977142D01*
X88533333Y-69024761D01*
X88628571Y-69072380D01*
X88819047Y-69072380D01*
X88914285Y-69024761D01*
X88961904Y-68977142D01*
X89009523Y-68881904D01*
X89009523Y-68072380D01*
X90009523Y-69072380D02*
X89438095Y-69072380D01*
X89723809Y-69072380D02*
X89723809Y-68072380D01*
X89628571Y-68215238D01*
X89533333Y-68310476D01*
X89438095Y-68358095D01*
G04 #@! TD*
M02*
