G04 #@! TF.GenerationSoftware,KiCad,Pcbnew,(5.0.0-rc3-dev-2-g101b68b61)*
G04 #@! TF.CreationDate,2018-07-09T03:14:57+02:00*
G04 #@! TF.ProjectId,L7805 reg,4C37383035207265672E6B696361645F,rev?*
G04 #@! TF.SameCoordinates,Original*
G04 #@! TF.FileFunction,Copper,L2,Bot,Signal*
G04 #@! TF.FilePolarity,Positive*
%FSLAX46Y46*%
G04 Gerber Fmt 4.6, Leading zero omitted, Abs format (unit mm)*
G04 Created by KiCad (PCBNEW (5.0.0-rc3-dev-2-g101b68b61)) date 07/09/18 03:14:57*
%MOMM*%
%LPD*%
G01*
G04 APERTURE LIST*
G04 #@! TA.AperFunction,WasherPad*
%ADD10C,2.750000*%
G04 #@! TD*
G04 #@! TA.AperFunction,ComponentPad*
%ADD11R,3.500000X3.500000*%
G04 #@! TD*
G04 #@! TA.AperFunction,ComponentPad*
%ADD12C,3.000000*%
G04 #@! TD*
G04 #@! TA.AperFunction,ComponentPad*
%ADD13R,3.000000X3.000000*%
G04 #@! TD*
G04 #@! TA.AperFunction,ViaPad*
%ADD14C,0.800000*%
G04 #@! TD*
G04 #@! TA.AperFunction,Conductor*
%ADD15C,0.254000*%
G04 #@! TD*
G04 APERTURE END LIST*
D10*
G04 #@! TO.P,MK1,*
G04 #@! TO.N,*
X68200000Y-83120000D03*
G04 #@! TD*
D11*
G04 #@! TO.P,J2,3*
G04 #@! TO.N,N/C*
X73200000Y-75820000D03*
G04 #@! TO.P,J2,2*
G04 #@! TO.N,GND*
X70200000Y-71120000D03*
G04 #@! TO.P,J2,1*
G04 #@! TO.N,+12V*
X76200000Y-71120000D03*
G04 #@! TD*
D12*
G04 #@! TO.P,J1,2*
G04 #@! TO.N,GND*
X92200000Y-80040000D03*
D13*
G04 #@! TO.P,J1,1*
G04 #@! TO.N,Net-(C2-Pad1)*
X92200000Y-85120000D03*
G04 #@! TD*
D14*
G04 #@! TO.N,GND*
X89200000Y-71120000D03*
X90200000Y-71120000D03*
X91200000Y-71120000D03*
X92200000Y-71120000D03*
X93200000Y-71120000D03*
X89200000Y-72120000D03*
X90200000Y-72120000D03*
X91200000Y-72120000D03*
X92200000Y-72120000D03*
X93200000Y-72120000D03*
X89200000Y-73120000D03*
X90200000Y-73120000D03*
X91200000Y-73120000D03*
X92200000Y-73120000D03*
X93200000Y-73120000D03*
X89200000Y-74120000D03*
X90200000Y-74120000D03*
X91200000Y-74120000D03*
X92200000Y-74120000D03*
X93200000Y-74120000D03*
X89200000Y-75120000D03*
X90200000Y-75120000D03*
X91200000Y-75120000D03*
X92200000Y-75120000D03*
X93200000Y-75120000D03*
G04 #@! TD*
D15*
G04 #@! TO.N,GND*
G36*
X94490001Y-87410000D02*
X63910000Y-87410000D01*
X63910000Y-82622321D01*
X65698000Y-82622321D01*
X65698000Y-83617679D01*
X66078907Y-84537269D01*
X66782731Y-85241093D01*
X67702321Y-85622000D01*
X68697679Y-85622000D01*
X69617269Y-85241093D01*
X70321093Y-84537269D01*
X70702000Y-83617679D01*
X70702000Y-82622321D01*
X70321093Y-81702731D01*
X69617269Y-80998907D01*
X68697679Y-80618000D01*
X67702321Y-80618000D01*
X66782731Y-80998907D01*
X66078907Y-81702731D01*
X65698000Y-82622321D01*
X63910000Y-82622321D01*
X63910000Y-80050075D01*
X74490000Y-80050075D01*
X74490001Y-85189926D01*
X74503642Y-85258504D01*
X74503642Y-85258513D01*
X74579762Y-85641196D01*
X74599395Y-85688593D01*
X74685776Y-85897138D01*
X74902549Y-86221561D01*
X74902550Y-86221562D01*
X75098438Y-86417451D01*
X75422862Y-86634223D01*
X75528877Y-86678136D01*
X75678804Y-86740238D01*
X76061486Y-86816358D01*
X76338513Y-86816358D01*
X76721196Y-86740238D01*
X76796160Y-86709187D01*
X76977138Y-86634224D01*
X77301561Y-86417451D01*
X77301562Y-86417450D01*
X77497451Y-86221562D01*
X77714223Y-85897138D01*
X77759096Y-85788805D01*
X77820238Y-85641196D01*
X77896358Y-85258514D01*
X77896358Y-85258509D01*
X77910000Y-85189926D01*
X77910000Y-83620000D01*
X90052560Y-83620000D01*
X90052560Y-86620000D01*
X90101843Y-86867765D01*
X90242191Y-87077809D01*
X90452235Y-87218157D01*
X90700000Y-87267440D01*
X93700000Y-87267440D01*
X93947765Y-87218157D01*
X94157809Y-87077809D01*
X94298157Y-86867765D01*
X94347440Y-86620000D01*
X94347440Y-83620000D01*
X94298157Y-83372235D01*
X94157809Y-83162191D01*
X93947765Y-83021843D01*
X93700000Y-82972560D01*
X90700000Y-82972560D01*
X90452235Y-83021843D01*
X90242191Y-83162191D01*
X90101843Y-83372235D01*
X90052560Y-83620000D01*
X77910000Y-83620000D01*
X77910000Y-81553970D01*
X90865635Y-81553970D01*
X91025418Y-81872739D01*
X91816187Y-82182723D01*
X92665387Y-82166497D01*
X93374582Y-81872739D01*
X93534365Y-81553970D01*
X92200000Y-80219605D01*
X90865635Y-81553970D01*
X77910000Y-81553970D01*
X77910000Y-80050074D01*
X77896358Y-79981491D01*
X77896358Y-79981486D01*
X77831653Y-79656187D01*
X90057277Y-79656187D01*
X90073503Y-80505387D01*
X90367261Y-81214582D01*
X90686030Y-81374365D01*
X92020395Y-80040000D01*
X92379605Y-80040000D01*
X93713970Y-81374365D01*
X94032739Y-81214582D01*
X94342723Y-80423813D01*
X94326497Y-79574613D01*
X94032739Y-78865418D01*
X93713970Y-78705635D01*
X92379605Y-80040000D01*
X92020395Y-80040000D01*
X90686030Y-78705635D01*
X90367261Y-78865418D01*
X90057277Y-79656187D01*
X77831653Y-79656187D01*
X77820238Y-79598804D01*
X77714223Y-79342863D01*
X77714223Y-79342862D01*
X77497451Y-79018438D01*
X77301562Y-78822550D01*
X77301561Y-78822549D01*
X76977138Y-78605776D01*
X76784612Y-78526030D01*
X90865635Y-78526030D01*
X92200000Y-79860395D01*
X93534365Y-78526030D01*
X93374582Y-78207261D01*
X92583813Y-77897277D01*
X91734613Y-77913503D01*
X91025418Y-78207261D01*
X90865635Y-78526030D01*
X76784612Y-78526030D01*
X76721196Y-78499762D01*
X76338513Y-78423642D01*
X76061486Y-78423642D01*
X75678804Y-78499762D01*
X75606632Y-78529657D01*
X75422862Y-78605777D01*
X75098438Y-78822549D01*
X74939501Y-78981487D01*
X74902549Y-79018439D01*
X74685776Y-79342862D01*
X74640904Y-79451195D01*
X74579762Y-79598804D01*
X74503642Y-79981487D01*
X74503642Y-79981492D01*
X74490000Y-80050075D01*
X63910000Y-80050075D01*
X63910000Y-71405750D01*
X67815000Y-71405750D01*
X67815000Y-72996310D01*
X67911673Y-73229699D01*
X68090302Y-73408327D01*
X68323691Y-73505000D01*
X69914250Y-73505000D01*
X70073000Y-73346250D01*
X70073000Y-71247000D01*
X70327000Y-71247000D01*
X70327000Y-73346250D01*
X70485750Y-73505000D01*
X71152612Y-73505000D01*
X70992191Y-73612191D01*
X70851843Y-73822235D01*
X70802560Y-74070000D01*
X70802560Y-77570000D01*
X70851843Y-77817765D01*
X70992191Y-78027809D01*
X71202235Y-78168157D01*
X71450000Y-78217440D01*
X74950000Y-78217440D01*
X75197765Y-78168157D01*
X75407809Y-78027809D01*
X75548157Y-77817765D01*
X75597440Y-77570000D01*
X75597440Y-74070000D01*
X75548157Y-73822235D01*
X75407809Y-73612191D01*
X75266005Y-73517440D01*
X77950000Y-73517440D01*
X78197765Y-73468157D01*
X78407809Y-73327809D01*
X78548157Y-73117765D01*
X78597440Y-72870000D01*
X78597440Y-69370000D01*
X78548157Y-69122235D01*
X78407809Y-68912191D01*
X78197765Y-68771843D01*
X77950000Y-68722560D01*
X74450000Y-68722560D01*
X74202235Y-68771843D01*
X73992191Y-68912191D01*
X73851843Y-69122235D01*
X73802560Y-69370000D01*
X73802560Y-72870000D01*
X73851843Y-73117765D01*
X73992191Y-73327809D01*
X74133995Y-73422560D01*
X72275337Y-73422560D01*
X72309698Y-73408327D01*
X72488327Y-73229699D01*
X72585000Y-72996310D01*
X72585000Y-71405750D01*
X72426250Y-71247000D01*
X70327000Y-71247000D01*
X70073000Y-71247000D01*
X67973750Y-71247000D01*
X67815000Y-71405750D01*
X63910000Y-71405750D01*
X63910000Y-69243690D01*
X67815000Y-69243690D01*
X67815000Y-70834250D01*
X67973750Y-70993000D01*
X70073000Y-70993000D01*
X70073000Y-68893750D01*
X70327000Y-68893750D01*
X70327000Y-70993000D01*
X72426250Y-70993000D01*
X72585000Y-70834250D01*
X72585000Y-69243690D01*
X72488327Y-69010301D01*
X72309698Y-68831673D01*
X72076309Y-68735000D01*
X70485750Y-68735000D01*
X70327000Y-68893750D01*
X70073000Y-68893750D01*
X69914250Y-68735000D01*
X68323691Y-68735000D01*
X68090302Y-68831673D01*
X67911673Y-69010301D01*
X67815000Y-69243690D01*
X63910000Y-69243690D01*
X63910000Y-66830000D01*
X94490000Y-66830000D01*
X94490001Y-87410000D01*
X94490001Y-87410000D01*
G37*
X94490001Y-87410000D02*
X63910000Y-87410000D01*
X63910000Y-82622321D01*
X65698000Y-82622321D01*
X65698000Y-83617679D01*
X66078907Y-84537269D01*
X66782731Y-85241093D01*
X67702321Y-85622000D01*
X68697679Y-85622000D01*
X69617269Y-85241093D01*
X70321093Y-84537269D01*
X70702000Y-83617679D01*
X70702000Y-82622321D01*
X70321093Y-81702731D01*
X69617269Y-80998907D01*
X68697679Y-80618000D01*
X67702321Y-80618000D01*
X66782731Y-80998907D01*
X66078907Y-81702731D01*
X65698000Y-82622321D01*
X63910000Y-82622321D01*
X63910000Y-80050075D01*
X74490000Y-80050075D01*
X74490001Y-85189926D01*
X74503642Y-85258504D01*
X74503642Y-85258513D01*
X74579762Y-85641196D01*
X74599395Y-85688593D01*
X74685776Y-85897138D01*
X74902549Y-86221561D01*
X74902550Y-86221562D01*
X75098438Y-86417451D01*
X75422862Y-86634223D01*
X75528877Y-86678136D01*
X75678804Y-86740238D01*
X76061486Y-86816358D01*
X76338513Y-86816358D01*
X76721196Y-86740238D01*
X76796160Y-86709187D01*
X76977138Y-86634224D01*
X77301561Y-86417451D01*
X77301562Y-86417450D01*
X77497451Y-86221562D01*
X77714223Y-85897138D01*
X77759096Y-85788805D01*
X77820238Y-85641196D01*
X77896358Y-85258514D01*
X77896358Y-85258509D01*
X77910000Y-85189926D01*
X77910000Y-83620000D01*
X90052560Y-83620000D01*
X90052560Y-86620000D01*
X90101843Y-86867765D01*
X90242191Y-87077809D01*
X90452235Y-87218157D01*
X90700000Y-87267440D01*
X93700000Y-87267440D01*
X93947765Y-87218157D01*
X94157809Y-87077809D01*
X94298157Y-86867765D01*
X94347440Y-86620000D01*
X94347440Y-83620000D01*
X94298157Y-83372235D01*
X94157809Y-83162191D01*
X93947765Y-83021843D01*
X93700000Y-82972560D01*
X90700000Y-82972560D01*
X90452235Y-83021843D01*
X90242191Y-83162191D01*
X90101843Y-83372235D01*
X90052560Y-83620000D01*
X77910000Y-83620000D01*
X77910000Y-81553970D01*
X90865635Y-81553970D01*
X91025418Y-81872739D01*
X91816187Y-82182723D01*
X92665387Y-82166497D01*
X93374582Y-81872739D01*
X93534365Y-81553970D01*
X92200000Y-80219605D01*
X90865635Y-81553970D01*
X77910000Y-81553970D01*
X77910000Y-80050074D01*
X77896358Y-79981491D01*
X77896358Y-79981486D01*
X77831653Y-79656187D01*
X90057277Y-79656187D01*
X90073503Y-80505387D01*
X90367261Y-81214582D01*
X90686030Y-81374365D01*
X92020395Y-80040000D01*
X92379605Y-80040000D01*
X93713970Y-81374365D01*
X94032739Y-81214582D01*
X94342723Y-80423813D01*
X94326497Y-79574613D01*
X94032739Y-78865418D01*
X93713970Y-78705635D01*
X92379605Y-80040000D01*
X92020395Y-80040000D01*
X90686030Y-78705635D01*
X90367261Y-78865418D01*
X90057277Y-79656187D01*
X77831653Y-79656187D01*
X77820238Y-79598804D01*
X77714223Y-79342863D01*
X77714223Y-79342862D01*
X77497451Y-79018438D01*
X77301562Y-78822550D01*
X77301561Y-78822549D01*
X76977138Y-78605776D01*
X76784612Y-78526030D01*
X90865635Y-78526030D01*
X92200000Y-79860395D01*
X93534365Y-78526030D01*
X93374582Y-78207261D01*
X92583813Y-77897277D01*
X91734613Y-77913503D01*
X91025418Y-78207261D01*
X90865635Y-78526030D01*
X76784612Y-78526030D01*
X76721196Y-78499762D01*
X76338513Y-78423642D01*
X76061486Y-78423642D01*
X75678804Y-78499762D01*
X75606632Y-78529657D01*
X75422862Y-78605777D01*
X75098438Y-78822549D01*
X74939501Y-78981487D01*
X74902549Y-79018439D01*
X74685776Y-79342862D01*
X74640904Y-79451195D01*
X74579762Y-79598804D01*
X74503642Y-79981487D01*
X74503642Y-79981492D01*
X74490000Y-80050075D01*
X63910000Y-80050075D01*
X63910000Y-71405750D01*
X67815000Y-71405750D01*
X67815000Y-72996310D01*
X67911673Y-73229699D01*
X68090302Y-73408327D01*
X68323691Y-73505000D01*
X69914250Y-73505000D01*
X70073000Y-73346250D01*
X70073000Y-71247000D01*
X70327000Y-71247000D01*
X70327000Y-73346250D01*
X70485750Y-73505000D01*
X71152612Y-73505000D01*
X70992191Y-73612191D01*
X70851843Y-73822235D01*
X70802560Y-74070000D01*
X70802560Y-77570000D01*
X70851843Y-77817765D01*
X70992191Y-78027809D01*
X71202235Y-78168157D01*
X71450000Y-78217440D01*
X74950000Y-78217440D01*
X75197765Y-78168157D01*
X75407809Y-78027809D01*
X75548157Y-77817765D01*
X75597440Y-77570000D01*
X75597440Y-74070000D01*
X75548157Y-73822235D01*
X75407809Y-73612191D01*
X75266005Y-73517440D01*
X77950000Y-73517440D01*
X78197765Y-73468157D01*
X78407809Y-73327809D01*
X78548157Y-73117765D01*
X78597440Y-72870000D01*
X78597440Y-69370000D01*
X78548157Y-69122235D01*
X78407809Y-68912191D01*
X78197765Y-68771843D01*
X77950000Y-68722560D01*
X74450000Y-68722560D01*
X74202235Y-68771843D01*
X73992191Y-68912191D01*
X73851843Y-69122235D01*
X73802560Y-69370000D01*
X73802560Y-72870000D01*
X73851843Y-73117765D01*
X73992191Y-73327809D01*
X74133995Y-73422560D01*
X72275337Y-73422560D01*
X72309698Y-73408327D01*
X72488327Y-73229699D01*
X72585000Y-72996310D01*
X72585000Y-71405750D01*
X72426250Y-71247000D01*
X70327000Y-71247000D01*
X70073000Y-71247000D01*
X67973750Y-71247000D01*
X67815000Y-71405750D01*
X63910000Y-71405750D01*
X63910000Y-69243690D01*
X67815000Y-69243690D01*
X67815000Y-70834250D01*
X67973750Y-70993000D01*
X70073000Y-70993000D01*
X70073000Y-68893750D01*
X70327000Y-68893750D01*
X70327000Y-70993000D01*
X72426250Y-70993000D01*
X72585000Y-70834250D01*
X72585000Y-69243690D01*
X72488327Y-69010301D01*
X72309698Y-68831673D01*
X72076309Y-68735000D01*
X70485750Y-68735000D01*
X70327000Y-68893750D01*
X70073000Y-68893750D01*
X69914250Y-68735000D01*
X68323691Y-68735000D01*
X68090302Y-68831673D01*
X67911673Y-69010301D01*
X67815000Y-69243690D01*
X63910000Y-69243690D01*
X63910000Y-66830000D01*
X94490000Y-66830000D01*
X94490001Y-87410000D01*
G04 #@! TD*
M02*
