M48
;DRILL file {KiCad (5.0.0-rc3-dev-2-g101b68b61)} date 07/09/18 03:14:44
;FORMAT={-:-/ absolute / metric / decimal}
FMAT,2
METRIC,TZ
T1C0.400
T2C1.000
T3C1.520
%
G90
G05
M71
T1
X89.2Y-71.12
X89.2Y-72.12
X89.2Y-73.12
X89.2Y-74.12
X89.2Y-75.12
X90.2Y-71.12
X90.2Y-72.12
X90.2Y-73.12
X90.2Y-74.12
X90.2Y-75.12
X91.2Y-71.12
X91.2Y-72.12
X91.2Y-73.12
X91.2Y-74.12
X91.2Y-75.12
X92.2Y-71.12
X92.2Y-72.12
X92.2Y-73.12
X92.2Y-74.12
X92.2Y-75.12
X93.2Y-71.12
X93.2Y-72.12
X93.2Y-73.12
X93.2Y-74.12
X93.2Y-75.12
T3
X92.2Y-80.04
X92.2Y-85.12
T2
X70.2Y-70.12G85X70.2Y-72.12
G05
X72.2Y-75.82G85X74.2Y-75.82
G05
X76.2Y-70.12G85X76.2Y-72.12
G05
T0
M30
