M48
;DRILL file {KiCad (5.0.1)-4} date 2019-04-28 15:33:38
;FORMAT={-:-/ absolute / inch / decimal}
FMAT,2
INCH,TZ
T1C0.0236
T2C0.0276
T3C0.0354
T4C0.0394
T5C0.0433
%
G90
G05
M72
T1
X6.8846Y-5.1091
X6.8846Y-5.4634
X6.8846Y-5.6406
X7.0028Y-5.1091
X7.0028Y-5.4634
X7.0535Y-5.0886
X7.1209Y-6.0539
X7.239Y-6.0539
X7.239Y-6.172
X7.4161Y-5.4634
X7.4752Y-5.6406
X7.6535Y-6.6386
X7.7461Y-5.9386
X7.9035Y-5.9386
X7.9535Y-6.0886
X8.0035Y-4.4386
X8.0549Y-6.0899
X8.1535Y-6.0886
X8.2285Y-4.2636
X8.2535Y-6.0886
X8.2785Y-4.3136
X8.3285Y-4.3636
X8.3535Y-6.0886
X8.4535Y-6.0886
X8.5535Y-6.0886
X8.6535Y-6.0886
X8.7785Y-6.0886
X8.9035Y-6.0886
X9.0035Y-6.0886
X9.1035Y-6.0886
X9.2035Y-6.0886
X9.3035Y-6.0886
X9.4035Y-6.0886
X9.5035Y-6.0886
X9.6035Y-6.0886
X9.7035Y-6.0886
X10.0635Y-4.0186
T2
X7.7785Y-5.2386
T3
X10.2035Y-4.4886
X10.3035Y-4.4886
X10.2035Y-4.8886
X10.3035Y-4.8886
T4
X7.6335Y-4.9646
X7.6335Y-5.0646
X7.6335Y-5.1646
X7.6335Y-5.2646
X7.6335Y-5.3646
X7.6335Y-5.4646
X7.6335Y-5.5646
X7.6335Y-5.6646
X7.5535Y-6.7886
X7.5535Y-6.8886
X7.5535Y-6.9886
X7.5535Y-7.0886
X7.6535Y-6.7886
X7.6535Y-6.8886
X7.6535Y-6.9886
X7.6535Y-7.0886
X7.9285Y-6.9886
X7.9285Y-7.0886
X8.0285Y-6.9886
X8.0285Y-7.0886
X8.1285Y-6.9886
X8.1285Y-7.0886
X8.2285Y-6.9886
X8.2285Y-7.0886
X8.3285Y-6.9886
X8.3285Y-7.0886
X8.4285Y-6.9886
X8.4285Y-7.0886
X8.5285Y-6.9886
X8.5285Y-7.0886
X8.6285Y-6.9886
X8.6285Y-7.0886
X8.7285Y-6.9886
X8.7285Y-7.0886
X8.8285Y-6.9886
X8.8285Y-7.0886
X8.9285Y-6.9886
X8.9285Y-7.0886
X9.0285Y-6.9886
X9.0285Y-7.0886
X9.1285Y-6.9886
X9.1285Y-7.0886
X9.2285Y-6.9886
X9.2285Y-7.0886
X9.3285Y-6.9886
X9.3285Y-7.0886
X9.4285Y-6.9886
X9.4285Y-7.0886
X9.5285Y-6.9886
X9.5285Y-7.0886
X9.6285Y-6.9886
X9.6285Y-7.0886
X9.7285Y-6.9886
X9.7285Y-7.0886
X9.8285Y-6.9886
X9.8285Y-7.0886
X7.2785Y-3.9386
X7.3785Y-3.9386
X7.4785Y-3.9386
X7.5785Y-3.9386
X8.2035Y-3.7886
X8.2035Y-3.8886
X8.3035Y-3.7886
X8.3035Y-3.8886
X8.4035Y-3.7886
X8.4035Y-3.8886
X8.5035Y-3.7886
X8.5035Y-3.8886
X8.6035Y-3.7886
X8.6035Y-3.8886
X8.7035Y-3.7886
X8.7035Y-3.8886
X8.8035Y-3.7886
X8.8035Y-3.8886
X8.9035Y-3.7886
X8.9035Y-3.8886
X9.0035Y-3.7886
X9.0035Y-3.8886
X9.1035Y-3.7886
X9.1035Y-3.8886
X9.2035Y-3.7886
X9.2035Y-3.8886
X9.3035Y-3.7886
X9.3035Y-3.8886
X9.4035Y-3.7886
X9.4035Y-3.8886
X9.5035Y-3.7886
X9.5035Y-3.8886
X9.6035Y-3.7886
X9.6035Y-3.8886
X9.7035Y-3.7886
X9.7035Y-3.8886
X9.8035Y-3.7886
X9.8035Y-3.8886
X9.9035Y-3.7886
X9.9035Y-3.8886
X10.0035Y-3.7886
X10.0035Y-3.8886
X10.1035Y-3.7886
X10.1035Y-3.8886
X8.1035Y-4.1886
X8.2035Y-4.1886
X8.3035Y-4.1886
X8.4035Y-4.1886
X8.5035Y-4.1886
X8.6035Y-4.1886
X8.7035Y-4.1886
X8.8035Y-4.1886
X8.9035Y-4.1886
X9.0035Y-4.1886
X8.1035Y-4.7386
X8.1035Y-4.8386
X8.1035Y-4.9386
X8.1035Y-5.0386
X8.1035Y-5.1386
X8.1035Y-5.2386
X8.1035Y-5.3386
X8.1035Y-5.4386
X8.2035Y-4.7386
X8.2035Y-4.8386
X8.2035Y-4.9386
X8.2035Y-5.0386
X8.2035Y-5.1386
X8.2035Y-5.2386
X8.2035Y-5.3386
X8.2035Y-5.4386
X8.4035Y-4.4386
X8.4035Y-4.5386
X8.4035Y-5.6386
X8.4035Y-5.7386
X8.5035Y-4.4386
X8.5035Y-4.5386
X8.5035Y-5.6386
X8.5035Y-5.7386
X8.6035Y-4.4386
X8.6035Y-4.5386
X8.6035Y-5.6386
X8.6035Y-5.7386
X8.7035Y-4.4386
X8.7035Y-4.5386
X8.7035Y-5.6386
X8.7035Y-5.7386
X8.8035Y-4.4386
X8.8035Y-4.5386
X8.8035Y-5.6386
X8.8035Y-5.7386
X8.9035Y-4.4386
X8.9035Y-4.5386
X8.9035Y-5.6386
X8.9035Y-5.7386
X9.0035Y-4.4386
X9.0035Y-4.5386
X9.0035Y-5.6386
X9.0035Y-5.7386
X9.1035Y-4.4386
X9.1035Y-4.5386
X9.1035Y-5.6386
X9.1035Y-5.7386
X9.3035Y-4.7386
X9.3035Y-4.8386
X9.3035Y-4.9386
X9.3035Y-5.0386
X9.3035Y-5.1386
X9.3035Y-5.2386
X9.3035Y-5.3386
X9.3035Y-5.4386
X9.4035Y-4.7386
X9.4035Y-4.8386
X9.4035Y-4.9386
X9.4035Y-5.0386
X9.4035Y-5.1386
X9.4035Y-5.2386
X9.4035Y-5.3386
X9.4035Y-5.4386
X6.8035Y-4.1886
X6.8035Y-4.7886
X6.9035Y-4.1886
X6.9035Y-4.7886
X7.0035Y-4.1886
X7.0035Y-4.7886
X7.1035Y-4.1886
X7.1035Y-4.7886
X7.2035Y-4.1886
X7.2035Y-4.7886
X7.3035Y-4.1886
X7.3035Y-4.7886
X7.4035Y-4.1886
X7.4035Y-4.7886
X7.5035Y-4.1886
X7.5035Y-4.7886
X7.6035Y-4.1886
X7.6035Y-4.7886
X7.7035Y-4.1886
X7.7035Y-4.7886
X7.8035Y-4.1886
X7.8035Y-4.7886
X7.9035Y-4.1886
X7.9035Y-4.7886
X9.2035Y-4.0886
X9.2035Y-4.1886
X9.3035Y-4.0886
X9.3035Y-4.1886
X9.4035Y-4.0886
X9.4035Y-4.1886
X9.5035Y-4.0886
X9.5035Y-4.1886
X9.7374Y-4.302
X9.8374Y-4.302
T5
X10.0915Y-6.0165
X10.0915Y-6.2724
X10.2687Y-6.0165
X10.2687Y-6.2724
X10.0915Y-6.4719
X10.0915Y-6.7278
X10.2687Y-6.4719
X10.2687Y-6.7278
T0
M30
