%TF.GenerationSoftware,KiCad,Pcbnew,(5.0.1)-4*%
%TF.CreationDate,2019-04-28T15:30:36+02:00*%
%TF.ProjectId,mobilt_eeg_frontend-exjobb2018,6D6F62696C745F6565675F66726F6E74,rev?*%
%TF.SameCoordinates,Original*%
%TF.FileFunction,Copper,L2,Bot,Signal*%
%TF.FilePolarity,Positive*%
%FSLAX46Y46*%
G04 Gerber Fmt 4.6, Leading zero omitted, Abs format (unit mm)*
G04 Created by KiCad (PCBNEW (5.0.1)-4) date 2019-04-28 15:30:36*
%MOMM*%
%LPD*%
G01*
G04 APERTURE LIST*
%TA.AperFunction,ComponentPad*%
%ADD10C,1.700000*%
%TD*%
%TA.AperFunction,ComponentPad*%
%ADD11R,1.800000X1.800000*%
%TD*%
%TA.AperFunction,ComponentPad*%
%ADD12C,1.800000*%
%TD*%
%TA.AperFunction,ComponentPad*%
%ADD13O,1.700000X1.700000*%
%TD*%
%TA.AperFunction,ComponentPad*%
%ADD14R,1.700000X1.700000*%
%TD*%
%TA.AperFunction,ComponentPad*%
%ADD15C,2.000000*%
%TD*%
%TA.AperFunction,ViaPad*%
%ADD16C,0.900000*%
%TD*%
%TA.AperFunction,ViaPad*%
%ADD17C,1.000000*%
%TD*%
%TA.AperFunction,Conductor*%
%ADD18C,0.500000*%
%TD*%
%TA.AperFunction,Conductor*%
%ADD19C,0.250000*%
%TD*%
G04 APERTURE END LIST*
D10*
%TO.P,U7,24*%
%TO.N,+5V*%
X172810000Y-106390000D03*
%TO.P,U7,23*%
%TO.N,DGND*%
X175350000Y-106390000D03*
%TO.P,U7,22*%
%TO.N,Net-(U7-Pad22)*%
X177890000Y-106390000D03*
%TO.P,U7,21*%
%TO.N,Net-(U7-Pad21)*%
X180430000Y-106390000D03*
%TO.P,U7,20*%
%TO.N,Net-(U7-Pad20)*%
X182970000Y-106390000D03*
%TO.P,U7,19*%
%TO.N,/~PWDN*%
X185510000Y-106390000D03*
%TO.P,U7,18*%
%TO.N,/~RESET*%
X188050000Y-106390000D03*
%TO.P,U7,17*%
%TO.N,/START*%
X190590000Y-106390000D03*
%TO.P,U7,16*%
%TO.N,/SPI_SCK*%
X193130000Y-106390000D03*
%TO.P,U7,15*%
%TO.N,/SPI_MISO*%
X195670000Y-106390000D03*
%TO.P,U7,14*%
%TO.N,/SPI_MOSI*%
X198210000Y-106390000D03*
%TO.P,U7,13*%
%TO.N,/SPI_SS*%
X200750000Y-106390000D03*
%TO.P,U7,12*%
%TO.N,Net-(U7-Pad12)*%
X200750000Y-121630000D03*
%TO.P,U7,11*%
%TO.N,Net-(U7-Pad11)*%
X198210000Y-121630000D03*
%TO.P,U7,10*%
%TO.N,Net-(U7-Pad10)*%
X195670000Y-121630000D03*
%TO.P,U7,9*%
%TO.N,Net-(U7-Pad9)*%
X193130000Y-121630000D03*
%TO.P,U7,8*%
%TO.N,Net-(U7-Pad8)*%
X190590000Y-121630000D03*
%TO.P,U7,7*%
%TO.N,Net-(U7-Pad7)*%
X188050000Y-121630000D03*
%TO.P,U7,6*%
%TO.N,Net-(U7-Pad6)*%
X185510000Y-121630000D03*
%TO.P,U7,5*%
%TO.N,/~DRDY*%
X182970000Y-121630000D03*
%TO.P,U7,4*%
%TO.N,DGND*%
X180430000Y-121630000D03*
%TO.P,U7,3*%
%TO.N,Net-(U7-Pad3)*%
X177890000Y-121630000D03*
%TO.P,U7,2*%
%TO.N,Net-(U7-Pad2)*%
X175350000Y-121630000D03*
%TO.P,U7,1*%
%TO.N,Net-(U7-Pad1)*%
X172810000Y-121630000D03*
%TD*%
D11*
%TO.P,D1,1*%
%TO.N,DGND*%
X259170000Y-124170000D03*
D12*
%TO.P,D1,2*%
%TO.N,Net-(D1-Pad2)*%
X261710000Y-124170000D03*
%TD*%
D10*
%TO.P,J8,1*%
%TO.N,AGND*%
X193890000Y-143880000D03*
D13*
%TO.P,J8,2*%
X193890000Y-141340000D03*
%TO.P,J8,3*%
%TO.N,AVSS*%
X193890000Y-138800000D03*
%TO.P,J8,4*%
X193890000Y-136260000D03*
%TO.P,J8,5*%
%TO.N,AVDD*%
X193890000Y-133720000D03*
%TO.P,J8,6*%
X193890000Y-131180000D03*
%TO.P,J8,7*%
%TO.N,DVDD*%
X193890000Y-128640000D03*
%TO.P,J8,8*%
X193890000Y-126100000D03*
%TD*%
%TO.P,J3,8*%
%TO.N,/BIASIN*%
X191860000Y-172430000D03*
%TO.P,J3,7*%
%TO.N,/BIASOUT*%
X194400000Y-172430000D03*
%TO.P,J3,6*%
%TO.N,Net-(Cf1-Pad2)*%
X191860000Y-174970000D03*
%TO.P,J3,5*%
%TO.N,/BIASOUT*%
X194400000Y-174970000D03*
%TO.P,J3,4*%
%TO.N,/BIASINV*%
X191860000Y-177510000D03*
%TO.P,J3,3*%
%TO.N,/SRB2*%
X194400000Y-177510000D03*
%TO.P,J3,2*%
%TO.N,/BIASREF*%
X191860000Y-180050000D03*
D10*
%TO.P,J3,1*%
%TO.N,/SRB1*%
X194400000Y-180050000D03*
%TD*%
D14*
%TO.P,J1,1*%
%TO.N,/GPIO1*%
X241390000Y-103850000D03*
D13*
%TO.P,J1,2*%
%TO.N,DGND*%
X241390000Y-106390000D03*
%TO.P,J1,3*%
%TO.N,/GPIO2*%
X238850000Y-103850000D03*
%TO.P,J1,4*%
%TO.N,DGND*%
X238850000Y-106390000D03*
%TO.P,J1,5*%
%TO.N,/GPIO3*%
X236310000Y-103850000D03*
%TO.P,J1,6*%
%TO.N,DGND*%
X236310000Y-106390000D03*
%TO.P,J1,7*%
%TO.N,/GPIO4*%
X233770000Y-103850000D03*
%TO.P,J1,8*%
%TO.N,DGND*%
X233770000Y-106390000D03*
%TD*%
D10*
%TO.P,U1,64*%
%TO.N,Net-(U1-Pad64)*%
X208370000Y-138140000D03*
%TO.P,U1,63*%
%TO.N,/BIASOUT*%
X205830000Y-138140000D03*
%TO.P,U1,62*%
%TO.N,/BIASIN*%
X208370000Y-135600000D03*
%TO.P,U1,61*%
%TO.N,/BIASINV*%
X205830000Y-135600000D03*
%TO.P,U1,60*%
%TO.N,/BIASREF*%
X208370000Y-133060000D03*
%TO.P,U1,59*%
%TO.N,AVDD*%
X205830000Y-133060000D03*
%TO.P,U1,58*%
%TO.N,AVSS*%
X208370000Y-130520000D03*
%TO.P,U1,57*%
X205830000Y-130520000D03*
%TO.P,U1,56*%
%TO.N,AVDD*%
X208370000Y-127980000D03*
%TO.P,U1,55*%
%TO.N,/VCAP3*%
X205830000Y-127980000D03*
%TO.P,U1,54*%
%TO.N,AVDD*%
X208370000Y-125440000D03*
%TO.P,U1,53*%
%TO.N,AVSS*%
X205830000Y-125440000D03*
%TO.P,U1,52*%
%TO.N,DGND*%
X208370000Y-122900000D03*
%TO.P,U1,51*%
X205830000Y-122900000D03*
%TO.P,U1,50*%
%TO.N,DVDD*%
X208370000Y-120360000D03*
%TO.P,U1,49*%
%TO.N,DGND*%
X205830000Y-120360000D03*
%TO.P,U1,48*%
%TO.N,DVDD*%
X213450000Y-115280000D03*
%TO.P,U1,47*%
%TO.N,/~DRDY*%
X213450000Y-112740000D03*
%TO.P,U1,46*%
%TO.N,/GPIO4*%
X215990000Y-115280000D03*
%TO.P,U1,45*%
%TO.N,/GPIO3*%
X215990000Y-112740000D03*
%TO.P,U1,44*%
%TO.N,/GPIO2*%
X218530000Y-115280000D03*
%TO.P,U1,43*%
%TO.N,/MISO*%
X218530000Y-112740000D03*
%TO.P,U1,42*%
%TO.N,/GPIO1*%
X221070000Y-115280000D03*
%TO.P,U1,41*%
%TO.N,DGND*%
X221070000Y-112740000D03*
%TO.P,U1,40*%
%TO.N,/SPI_SCK*%
X223610000Y-115280000D03*
%TO.P,U1,39*%
%TO.N,/SPI_SS*%
X223610000Y-112740000D03*
%TO.P,U1,38*%
%TO.N,/START*%
X226150000Y-115280000D03*
%TO.P,U1,37*%
%TO.N,/XTAL*%
X226150000Y-112740000D03*
%TO.P,U1,36*%
%TO.N,/~RESET*%
X228690000Y-115280000D03*
%TO.P,U1,35*%
%TO.N,/~PWDN*%
X228690000Y-112740000D03*
%TO.P,U1,34*%
%TO.N,/MOSI*%
X231230000Y-115280000D03*
%TO.P,U1,33*%
%TO.N,DGND*%
X231230000Y-112740000D03*
%TO.P,U1,32*%
%TO.N,AVSS*%
X236310000Y-120360000D03*
%TO.P,U1,31*%
%TO.N,DGND*%
X238850000Y-120360000D03*
%TO.P,U1,30*%
%TO.N,/VCAP2*%
X236310000Y-122900000D03*
%TO.P,U1,29*%
%TO.N,N/C*%
X238850000Y-122900000D03*
%TO.P,U1,28*%
%TO.N,/VCAP1*%
X236310000Y-125440000D03*
%TO.P,U1,27*%
%TO.N,N/C*%
X238850000Y-125440000D03*
%TO.P,U1,26*%
%TO.N,/VCAP4*%
X236310000Y-127980000D03*
%TO.P,U1,25*%
%TO.N,AVSS*%
X238850000Y-127980000D03*
%TO.P,U1,24*%
%TO.N,/VREFP*%
X236310000Y-130520000D03*
%TO.P,U1,23*%
%TO.N,AVSS*%
X238850000Y-130520000D03*
%TO.P,U1,22*%
%TO.N,AVDD*%
X236310000Y-133060000D03*
%TO.P,U1,21*%
X238850000Y-133060000D03*
%TO.P,U1,20*%
%TO.N,AVSS*%
X236310000Y-135600000D03*
%TO.P,U1,19*%
%TO.N,AVDD*%
X238850000Y-135600000D03*
%TO.P,U1,18*%
%TO.N,/SRB2*%
X236310000Y-138140000D03*
%TO.P,U1,17*%
%TO.N,/SRB1*%
X238850000Y-138140000D03*
%TO.P,U1,16*%
%TO.N,/IN1P*%
X231230000Y-143220000D03*
%TO.P,U1,15*%
%TO.N,/IN1N*%
X231230000Y-145760000D03*
%TO.P,U1,14*%
%TO.N,/IN2P*%
X228690000Y-143220000D03*
%TO.P,U1,13*%
%TO.N,/IN2N*%
X228690000Y-145760000D03*
%TO.P,U1,12*%
%TO.N,/IN3P*%
X226150000Y-143220000D03*
%TO.P,U1,11*%
%TO.N,/IN3N*%
X226150000Y-145760000D03*
%TO.P,U1,10*%
%TO.N,/IN4P*%
X223610000Y-143220000D03*
%TO.P,U1,9*%
%TO.N,/IN4N*%
X223610000Y-145760000D03*
%TO.P,U1,8*%
%TO.N,/IN5P*%
X221070000Y-143220000D03*
%TO.P,U1,7*%
%TO.N,/IN5N*%
X221070000Y-145760000D03*
%TO.P,U1,6*%
%TO.N,/IN6P*%
X218530000Y-143220000D03*
%TO.P,U1,5*%
%TO.N,/IN6N*%
X218530000Y-145760000D03*
%TO.P,U1,4*%
%TO.N,/IN7P*%
X215990000Y-143220000D03*
%TO.P,U1,3*%
%TO.N,/IN7N*%
X215990000Y-145760000D03*
%TO.P,U1,2*%
%TO.N,/IN8P*%
X213450000Y-143220000D03*
D14*
%TO.P,U1,1*%
%TO.N,/IN8N*%
X213450000Y-145760000D03*
%TD*%
D11*
%TO.P,D2,1*%
%TO.N,DGND*%
X259170000Y-114010000D03*
D12*
%TO.P,D2,2*%
%TO.N,Net-(D2-Pad2)*%
X261710000Y-114010000D03*
%TD*%
D14*
%TO.P,J2,1*%
%TO.N,/BIASOUT_FILTERED*%
X201385000Y-180050000D03*
D13*
%TO.P,J2,2*%
%TO.N,AGND*%
X201385000Y-177510000D03*
%TO.P,J2,3*%
%TO.N,Net-(J2-Pad3)*%
X203925000Y-180050000D03*
%TO.P,J2,4*%
%TO.N,Net-(J2-Pad4)*%
X203925000Y-177510000D03*
%TO.P,J2,5*%
%TO.N,AGND*%
X206465000Y-180050000D03*
%TO.P,J2,6*%
X206465000Y-177510000D03*
%TO.P,J2,7*%
%TO.N,Net-(J2-Pad7)*%
X209005000Y-180050000D03*
%TO.P,J2,8*%
%TO.N,Net-(J2-Pad8)*%
X209005000Y-177510000D03*
%TO.P,J2,9*%
%TO.N,AGND*%
X211545000Y-180050000D03*
%TO.P,J2,10*%
X211545000Y-177510000D03*
%TO.P,J2,11*%
%TO.N,Net-(J2-Pad11)*%
X214085000Y-180050000D03*
%TO.P,J2,12*%
%TO.N,Net-(J2-Pad12)*%
X214085000Y-177510000D03*
%TO.P,J2,13*%
%TO.N,AGND*%
X216625000Y-180050000D03*
%TO.P,J2,14*%
X216625000Y-177510000D03*
%TO.P,J2,15*%
%TO.N,Net-(J2-Pad15)*%
X219165000Y-180050000D03*
%TO.P,J2,16*%
%TO.N,Net-(J2-Pad16)*%
X219165000Y-177510000D03*
%TO.P,J2,17*%
%TO.N,AGND*%
X221705000Y-180050000D03*
%TO.P,J2,18*%
X221705000Y-177510000D03*
%TO.P,J2,19*%
%TO.N,Net-(J2-Pad19)*%
X224245000Y-180050000D03*
%TO.P,J2,20*%
%TO.N,Net-(J2-Pad20)*%
X224245000Y-177510000D03*
%TO.P,J2,21*%
%TO.N,AGND*%
X226785000Y-180050000D03*
%TO.P,J2,22*%
X226785000Y-177510000D03*
%TO.P,J2,23*%
%TO.N,Net-(J2-Pad23)*%
X229325000Y-180050000D03*
%TO.P,J2,24*%
%TO.N,Net-(J2-Pad24)*%
X229325000Y-177510000D03*
%TO.P,J2,25*%
%TO.N,AGND*%
X231865000Y-180050000D03*
%TO.P,J2,26*%
X231865000Y-177510000D03*
%TO.P,J2,27*%
%TO.N,Net-(J2-Pad27)*%
X234405000Y-180050000D03*
%TO.P,J2,28*%
%TO.N,Net-(J2-Pad28)*%
X234405000Y-177510000D03*
%TO.P,J2,29*%
%TO.N,AGND*%
X236945000Y-180050000D03*
%TO.P,J2,30*%
X236945000Y-177510000D03*
%TO.P,J2,31*%
%TO.N,Net-(J2-Pad31)*%
X239485000Y-180050000D03*
%TO.P,J2,32*%
%TO.N,Net-(J2-Pad32)*%
X239485000Y-177510000D03*
%TO.P,J2,33*%
%TO.N,AGND*%
X242025000Y-180050000D03*
%TO.P,J2,34*%
X242025000Y-177510000D03*
%TO.P,J2,35*%
%TO.N,/SRB2_FILT*%
X244565000Y-180050000D03*
%TO.P,J2,36*%
%TO.N,/SRB1_FILT*%
X244565000Y-177510000D03*
%TO.P,J2,37*%
%TO.N,AGND*%
X247105000Y-180050000D03*
%TO.P,J2,38*%
X247105000Y-177510000D03*
%TO.P,J2,39*%
X249645000Y-180050000D03*
%TO.P,J2,40*%
X249645000Y-177510000D03*
%TD*%
D14*
%TO.P,J5,1*%
%TO.N,DGND*%
X205830000Y-106390000D03*
D13*
%TO.P,J5,2*%
%TO.N,/~DRDY*%
X208370000Y-106390000D03*
%TO.P,J5,3*%
%TO.N,/SPI_MISO*%
X210910000Y-106390000D03*
%TO.P,J5,4*%
%TO.N,/SPI_SCK*%
X213450000Y-106390000D03*
%TO.P,J5,5*%
%TO.N,/SPI_SS*%
X215990000Y-106390000D03*
%TO.P,J5,6*%
%TO.N,/START*%
X218530000Y-106390000D03*
%TO.P,J5,7*%
%TO.N,/XTAL*%
X221070000Y-106390000D03*
%TO.P,J5,8*%
%TO.N,/~RESET*%
X223610000Y-106390000D03*
%TO.P,J5,9*%
%TO.N,/~PWDN*%
X226150000Y-106390000D03*
%TO.P,J5,10*%
%TO.N,/SPI_MOSI*%
X228690000Y-106390000D03*
%TD*%
D14*
%TO.P,J9,1*%
%TO.N,/+3V3_Pi*%
X192495000Y-100040000D03*
D13*
%TO.P,J9,2*%
%TO.N,/GPIO2(SDA1)*%
X189955000Y-100040000D03*
%TO.P,J9,3*%
%TO.N,/GPIO3(SCL1)*%
X187415000Y-100040000D03*
%TO.P,J9,4*%
%TO.N,DGND*%
X184875000Y-100040000D03*
%TD*%
D14*
%TO.P,J11,1*%
%TO.N,Net-(J11-Pad1)*%
X249870000Y-109270000D03*
D13*
%TO.P,J11,2*%
%TO.N,DGND*%
X247330000Y-109270000D03*
%TD*%
D15*
%TO.P,SW1,2*%
%TO.N,DGND*%
X256325000Y-164385000D03*
%TO.P,SW1,1*%
%TO.N,/GPIO6*%
X260825000Y-164385000D03*
%TO.P,SW1,2*%
%TO.N,DGND*%
X256325000Y-170885000D03*
%TO.P,SW1,1*%
%TO.N,/GPIO6*%
X260825000Y-170885000D03*
%TD*%
%TO.P,SW2,2*%
%TO.N,DGND*%
X256325000Y-152820000D03*
%TO.P,SW2,1*%
%TO.N,/GPIO13(PWM1)*%
X260825000Y-152820000D03*
%TO.P,SW2,2*%
%TO.N,DGND*%
X256325000Y-159320000D03*
%TO.P,SW2,1*%
%TO.N,/GPIO13(PWM1)*%
X260825000Y-159320000D03*
%TD*%
D14*
%TO.P,P1,1*%
%TO.N,/+3V3_Pi*%
X208370000Y-98770000D03*
D13*
%TO.P,P1,2*%
%TO.N,+5V*%
X208370000Y-96230000D03*
%TO.P,P1,3*%
%TO.N,/GPIO2(SDA1)*%
X210910000Y-98770000D03*
%TO.P,P1,4*%
%TO.N,+5V*%
X210910000Y-96230000D03*
%TO.P,P1,5*%
%TO.N,/GPIO3(SCL1)*%
X213450000Y-98770000D03*
%TO.P,P1,6*%
%TO.N,DGND*%
X213450000Y-96230000D03*
%TO.P,P1,7*%
%TO.N,/GPIO4(GCLK)*%
X215990000Y-98770000D03*
%TO.P,P1,8*%
%TO.N,/GPIO14(TXD0)*%
X215990000Y-96230000D03*
%TO.P,P1,9*%
%TO.N,DGND*%
X218530000Y-98770000D03*
%TO.P,P1,10*%
%TO.N,/GPIO15(RXD0)*%
X218530000Y-96230000D03*
%TO.P,P1,11*%
%TO.N,Net-(P1-Pad11)*%
X221070000Y-98770000D03*
%TO.P,P1,12*%
%TO.N,/GPIO18(GEN1)(PWM0)*%
X221070000Y-96230000D03*
%TO.P,P1,13*%
%TO.N,/GPIO27(GEN2)*%
X223610000Y-98770000D03*
%TO.P,P1,14*%
%TO.N,DGND*%
X223610000Y-96230000D03*
%TO.P,P1,15*%
%TO.N,/GPIO22(GEN3)*%
X226150000Y-98770000D03*
%TO.P,P1,16*%
%TO.N,/GPIO23(GEN4)*%
X226150000Y-96230000D03*
%TO.P,P1,17*%
%TO.N,/+3V3_Pi*%
X228690000Y-98770000D03*
%TO.P,P1,18*%
%TO.N,/GPIO24(GEN5)*%
X228690000Y-96230000D03*
%TO.P,P1,19*%
%TO.N,/GPIO10(SPI0_MOSI)*%
X231230000Y-98770000D03*
%TO.P,P1,20*%
%TO.N,DGND*%
X231230000Y-96230000D03*
%TO.P,P1,21*%
%TO.N,/GPIO9(SPI0_MISO)*%
X233770000Y-98770000D03*
%TO.P,P1,22*%
%TO.N,/GPIO25(GEN6)*%
X233770000Y-96230000D03*
%TO.P,P1,23*%
%TO.N,/GPIO11(SPI0_SCK)*%
X236310000Y-98770000D03*
%TO.P,P1,24*%
%TO.N,/GPIO8(SPI0_CE_N)*%
X236310000Y-96230000D03*
%TO.P,P1,25*%
%TO.N,DGND*%
X238850000Y-98770000D03*
%TO.P,P1,26*%
%TO.N,/START*%
X238850000Y-96230000D03*
%TO.P,P1,27*%
%TO.N,/ID_SD*%
X241390000Y-98770000D03*
%TO.P,P1,28*%
%TO.N,/ID_SC*%
X241390000Y-96230000D03*
%TO.P,P1,29*%
%TO.N,/~RESET*%
X243930000Y-98770000D03*
%TO.P,P1,30*%
%TO.N,DGND*%
X243930000Y-96230000D03*
%TO.P,P1,31*%
%TO.N,/GPIO6*%
X246470000Y-98770000D03*
%TO.P,P1,32*%
%TO.N,/~PWDN*%
X246470000Y-96230000D03*
%TO.P,P1,33*%
%TO.N,/GPIO13(PWM1)*%
X249010000Y-98770000D03*
%TO.P,P1,34*%
%TO.N,DGND*%
X249010000Y-96230000D03*
%TO.P,P1,35*%
%TO.N,/GPIO19(SPI1_MISO)*%
X251550000Y-98770000D03*
%TO.P,P1,36*%
%TO.N,/GPIO16*%
X251550000Y-96230000D03*
%TO.P,P1,37*%
%TO.N,/GPIO26*%
X254090000Y-98770000D03*
%TO.P,P1,38*%
%TO.N,/GPIO20(SPI1_MOSI)*%
X254090000Y-96230000D03*
%TO.P,P1,39*%
%TO.N,DGND*%
X256630000Y-98770000D03*
%TO.P,P1,40*%
%TO.N,/GPIO21(SPI1_SCK)*%
X256630000Y-96230000D03*
%TD*%
D16*
%TO.N,/GPIO6*%
X255614000Y-102072000D03*
%TO.N,/~RESET*%
X211545000Y-110835000D03*
%TO.N,AGND*%
X204593364Y-154683364D03*
X207100000Y-154650000D03*
X209640000Y-154650000D03*
X212180000Y-154650000D03*
X214720000Y-154650000D03*
X217260000Y-154650000D03*
X219800000Y-154650000D03*
X222975000Y-154650000D03*
X226150000Y-154650000D03*
X228690000Y-154650000D03*
X231230000Y-154650000D03*
X233770000Y-154650000D03*
X236310000Y-154650000D03*
X238850000Y-154650000D03*
X241390000Y-154650000D03*
X243930000Y-154650000D03*
X246470000Y-154650000D03*
X202020000Y-154650000D03*
X174870000Y-129770000D03*
X177870000Y-129770000D03*
X174870000Y-138770000D03*
X177870000Y-138770000D03*
X188370000Y-138770000D03*
X174870000Y-143270000D03*
X189870000Y-143270000D03*
X180870000Y-153770000D03*
X183870000Y-153770000D03*
X183870000Y-156770000D03*
D17*
%TO.N,AVSS*%
X197575000Y-133060000D03*
D16*
%TO.N,/BIASINV*%
X194400000Y-168620000D03*
%TO.N,/BIASREF*%
X200750000Y-150840000D03*
X196750000Y-150840000D03*
%TO.N,/START*%
X210275000Y-109565000D03*
%TO.N,/SPI_SCK*%
X209005000Y-108295000D03*
%TO.N,DGND*%
X179160000Y-129250000D03*
X203290000Y-112740000D03*
%TD*%
D18*
%TO.N,+5V*%
X208370000Y-96230000D02*
X210910000Y-96230000D01*
X173445000Y-96230000D02*
X172810000Y-96865000D01*
X198845000Y-96230000D02*
X173445000Y-96230000D01*
X207167919Y-96230000D02*
X207019999Y-96377920D01*
X172810000Y-96865000D02*
X172810000Y-106390000D01*
X208370000Y-96230000D02*
X207167919Y-96230000D01*
X207019999Y-96377920D02*
X207019999Y-100594999D01*
X207019999Y-100594999D02*
X206304998Y-101310000D01*
X206304998Y-101310000D02*
X200750000Y-101310000D01*
X198845000Y-99405000D02*
X198845000Y-96230000D01*
X200750000Y-101310000D02*
X198845000Y-99405000D01*
D19*
%TO.N,/GPIO6*%
X249772000Y-102072000D02*
X246470000Y-98770000D01*
X255614000Y-102072000D02*
X249772000Y-102072000D01*
%TO.N,/~RESET*%
X223610000Y-106390000D02*
X219165000Y-110835000D01*
X219165000Y-110835000D02*
X211545000Y-110835000D01*
%TO.N,AVSS*%
X238050001Y-131109999D02*
X238900000Y-130260000D01*
X237585001Y-134114999D02*
X237585001Y-131574999D01*
X236360000Y-135340000D02*
X237585001Y-134114999D01*
X238900000Y-129057919D02*
X238900000Y-127720000D01*
X237209999Y-120949999D02*
X236360000Y-120100000D01*
X237585001Y-126405001D02*
X237585001Y-121325001D01*
X238900000Y-127720000D02*
X237585001Y-126405001D01*
X237585001Y-121325001D02*
X237209999Y-120949999D01*
X238900000Y-130260000D02*
X238900000Y-129057919D01*
X237585001Y-131574999D02*
X238050001Y-131109999D01*
D18*
X193890000Y-136260000D02*
X197090000Y-133060000D01*
X197090000Y-133060000D02*
X197575000Y-133060000D01*
D19*
%TO.N,/BIASINV*%
X192709999Y-176660001D02*
X191860000Y-177510000D01*
X193085001Y-176284999D02*
X192709999Y-176660001D01*
X193085001Y-169934999D02*
X193085001Y-176284999D01*
X194400000Y-168620000D02*
X193085001Y-169934999D01*
%TO.N,/BIASREF*%
X200750000Y-150840000D02*
X196750000Y-150840000D01*
%TO.N,/START*%
X218530000Y-106390000D02*
X215355000Y-109565000D01*
X215355000Y-109565000D02*
X210275000Y-109565000D01*
%TO.N,/SPI_SCK*%
X213450000Y-106390000D02*
X211545000Y-108295000D01*
X211545000Y-108295000D02*
X209005000Y-108295000D01*
%TO.N,DGND*%
X180430000Y-121630000D02*
X180430000Y-127980000D01*
X180430000Y-127980000D02*
X179160000Y-129250000D01*
X205830000Y-106390000D02*
X205830000Y-110200000D01*
X205830000Y-110200000D02*
X203290000Y-112740000D01*
%TD*%
M02*
