%TF.GenerationSoftware,KiCad,Pcbnew,(5.0.0-rc3-dev-2-g101b68b61)*%
%TF.CreationDate,2018-07-10T18:38:07+02:00*%
%TF.ProjectId,mobilt_eeg_frontend-exjobb2018,6D6F62696C745F6565675F66726F6E74,rev?*%
%TF.SameCoordinates,Original*%
%TF.FileFunction,Copper,L2,Bot,Signal*%
%TF.FilePolarity,Positive*%
%FSLAX46Y46*%
G04 Gerber Fmt 4.6, Leading zero omitted, Abs format (unit mm)*
G04 Created by KiCad (PCBNEW (5.0.0-rc3-dev-2-g101b68b61)) date 07/10/18 18:38:07*
%MOMM*%
%LPD*%
G01*
G04 APERTURE LIST*
%TA.AperFunction,ComponentPad*%
%ADD10R,1.700000X1.700000*%
%TD*%
%TA.AperFunction,ComponentPad*%
%ADD11O,1.700000X1.700000*%
%TD*%
%TA.AperFunction,WasherPad*%
%ADD12C,3.000000*%
%TD*%
G04 APERTURE END LIST*
D10*
%TO.P,P1,1*%
%TO.N,+3V3*%
X208370000Y-98770000D03*
D11*
%TO.P,P1,2*%
%TO.N,+5V*%
X208370000Y-96230000D03*
%TO.P,P1,3*%
%TO.N,/GPIO2(SDA1)*%
X210910000Y-98770000D03*
%TO.P,P1,4*%
%TO.N,+5V*%
X210910000Y-96230000D03*
%TO.P,P1,5*%
%TO.N,/GPIO3(SCL1)*%
X213450000Y-98770000D03*
%TO.P,P1,6*%
%TO.N,GND*%
X213450000Y-96230000D03*
%TO.P,P1,7*%
%TO.N,/GPIO4(GCLK)*%
X215990000Y-98770000D03*
%TO.P,P1,8*%
%TO.N,/GPIO14(TXD0)*%
X215990000Y-96230000D03*
%TO.P,P1,9*%
%TO.N,GND*%
X218530000Y-98770000D03*
%TO.P,P1,10*%
%TO.N,/GPIO15(RXD0)*%
X218530000Y-96230000D03*
%TO.P,P1,11*%
%TO.N,/GPIO17(GEN0)*%
X221070000Y-98770000D03*
%TO.P,P1,12*%
%TO.N,/GPIO18(GEN1)(PWM0)*%
X221070000Y-96230000D03*
%TO.P,P1,13*%
%TO.N,/GPIO27(GEN2)*%
X223610000Y-98770000D03*
%TO.P,P1,14*%
%TO.N,GND*%
X223610000Y-96230000D03*
%TO.P,P1,15*%
%TO.N,/GPIO22(GEN3)*%
X226150000Y-98770000D03*
%TO.P,P1,16*%
%TO.N,/GPIO23(GEN4)*%
X226150000Y-96230000D03*
%TO.P,P1,17*%
%TO.N,+3V3*%
X228690000Y-98770000D03*
%TO.P,P1,18*%
%TO.N,/GPIO24(GEN5)*%
X228690000Y-96230000D03*
%TO.P,P1,19*%
%TO.N,/GPIO10(SPI0_MOSI)*%
X231230000Y-98770000D03*
%TO.P,P1,20*%
%TO.N,GND*%
X231230000Y-96230000D03*
%TO.P,P1,21*%
%TO.N,/GPIO9(SPI0_MISO)*%
X233770000Y-98770000D03*
%TO.P,P1,22*%
%TO.N,/GPIO25(GEN6)*%
X233770000Y-96230000D03*
%TO.P,P1,23*%
%TO.N,/GPIO11(SPI0_SCK)*%
X236310000Y-98770000D03*
%TO.P,P1,24*%
%TO.N,/GPIO8(SPI0_CE_N)*%
X236310000Y-96230000D03*
%TO.P,P1,25*%
%TO.N,GND*%
X238850000Y-98770000D03*
%TO.P,P1,26*%
%TO.N,/GPIO7(SPI1_CE_N)*%
X238850000Y-96230000D03*
%TO.P,P1,27*%
%TO.N,/ID_SD*%
X241390000Y-98770000D03*
%TO.P,P1,28*%
%TO.N,/ID_SC*%
X241390000Y-96230000D03*
%TO.P,P1,29*%
%TO.N,/GPIO5*%
X243930000Y-98770000D03*
%TO.P,P1,30*%
%TO.N,GND*%
X243930000Y-96230000D03*
%TO.P,P1,31*%
%TO.N,/GPIO6*%
X246470000Y-98770000D03*
%TO.P,P1,32*%
%TO.N,/GPIO12(PWM0)*%
X246470000Y-96230000D03*
%TO.P,P1,33*%
%TO.N,/GPIO13(PWM1)*%
X249010000Y-98770000D03*
%TO.P,P1,34*%
%TO.N,GND*%
X249010000Y-96230000D03*
%TO.P,P1,35*%
%TO.N,/GPIO19(SPI1_MISO)*%
X251550000Y-98770000D03*
%TO.P,P1,36*%
%TO.N,/GPIO16*%
X251550000Y-96230000D03*
%TO.P,P1,37*%
%TO.N,/GPIO26*%
X254090000Y-98770000D03*
%TO.P,P1,38*%
%TO.N,/GPIO20(SPI1_MOSI)*%
X254090000Y-96230000D03*
%TO.P,P1,39*%
%TO.N,GND*%
X256630000Y-98770000D03*
%TO.P,P1,40*%
%TO.N,/GPIO21(SPI1_SCK)*%
X256630000Y-96230000D03*
%TD*%
D12*
%TO.P,MK4,*%
%TO.N,*%
X261500000Y-146500000D03*
%TD*%
%TO.P,MK3,*%
%TO.N,*%
X203500000Y-146500000D03*
%TD*%
%TO.P,MK2,*%
%TO.N,*%
X261500000Y-97500000D03*
%TD*%
%TO.P,MK1,*%
%TO.N,*%
X203500000Y-97500000D03*
%TD*%
M02*
