G04 #@! TF.GenerationSoftware,KiCad,Pcbnew,(5.0.0-rc3-dev-2-g101b68b61)*
G04 #@! TF.CreationDate,2018-07-10T18:42:39+02:00*
G04 #@! TF.ProjectId,mobilt_eeg_frontend-exjobb2018,6D6F62696C745F6565675F66726F6E74,rev?*
G04 #@! TF.SameCoordinates,Original*
G04 #@! TF.FileFunction,Copper,L1,Top,Signal*
G04 #@! TF.FilePolarity,Positive*
%FSLAX46Y46*%
G04 Gerber Fmt 4.6, Leading zero omitted, Abs format (unit mm)*
G04 Created by KiCad (PCBNEW (5.0.0-rc3-dev-2-g101b68b61)) date 07/10/18 18:42:39*
%MOMM*%
%LPD*%
G01*
G04 APERTURE LIST*
G04 #@! TA.AperFunction,ComponentPad*
%ADD10R,1.700000X1.700000*%
G04 #@! TD*
G04 #@! TA.AperFunction,ComponentPad*
%ADD11O,1.700000X1.700000*%
G04 #@! TD*
G04 #@! TA.AperFunction,WasherPad*
%ADD12C,3.000000*%
G04 #@! TD*
G04 #@! TA.AperFunction,Conductor*
%ADD13C,0.254000*%
G04 #@! TD*
G04 APERTURE END LIST*
D10*
G04 #@! TO.P,P1,1*
G04 #@! TO.N,+3V3*
X208370000Y-98770000D03*
D11*
G04 #@! TO.P,P1,2*
G04 #@! TO.N,+5V*
X208370000Y-96230000D03*
G04 #@! TO.P,P1,3*
G04 #@! TO.N,/GPIO2(SDA1)*
X210910000Y-98770000D03*
G04 #@! TO.P,P1,4*
G04 #@! TO.N,+5V*
X210910000Y-96230000D03*
G04 #@! TO.P,P1,5*
G04 #@! TO.N,/GPIO3(SCL1)*
X213450000Y-98770000D03*
G04 #@! TO.P,P1,6*
G04 #@! TO.N,GND*
X213450000Y-96230000D03*
G04 #@! TO.P,P1,7*
G04 #@! TO.N,/GPIO4(GCLK)*
X215990000Y-98770000D03*
G04 #@! TO.P,P1,8*
G04 #@! TO.N,/GPIO14(TXD0)*
X215990000Y-96230000D03*
G04 #@! TO.P,P1,9*
G04 #@! TO.N,GND*
X218530000Y-98770000D03*
G04 #@! TO.P,P1,10*
G04 #@! TO.N,/GPIO15(RXD0)*
X218530000Y-96230000D03*
G04 #@! TO.P,P1,11*
G04 #@! TO.N,/GPIO17(GEN0)*
X221070000Y-98770000D03*
G04 #@! TO.P,P1,12*
G04 #@! TO.N,/GPIO18(GEN1)(PWM0)*
X221070000Y-96230000D03*
G04 #@! TO.P,P1,13*
G04 #@! TO.N,/GPIO27(GEN2)*
X223610000Y-98770000D03*
G04 #@! TO.P,P1,14*
G04 #@! TO.N,GND*
X223610000Y-96230000D03*
G04 #@! TO.P,P1,15*
G04 #@! TO.N,/GPIO22(GEN3)*
X226150000Y-98770000D03*
G04 #@! TO.P,P1,16*
G04 #@! TO.N,/GPIO23(GEN4)*
X226150000Y-96230000D03*
G04 #@! TO.P,P1,17*
G04 #@! TO.N,+3V3*
X228690000Y-98770000D03*
G04 #@! TO.P,P1,18*
G04 #@! TO.N,/GPIO24(GEN5)*
X228690000Y-96230000D03*
G04 #@! TO.P,P1,19*
G04 #@! TO.N,/GPIO10(SPI0_MOSI)*
X231230000Y-98770000D03*
G04 #@! TO.P,P1,20*
G04 #@! TO.N,GND*
X231230000Y-96230000D03*
G04 #@! TO.P,P1,21*
G04 #@! TO.N,/GPIO9(SPI0_MISO)*
X233770000Y-98770000D03*
G04 #@! TO.P,P1,22*
G04 #@! TO.N,/GPIO25(GEN6)*
X233770000Y-96230000D03*
G04 #@! TO.P,P1,23*
G04 #@! TO.N,/GPIO11(SPI0_SCK)*
X236310000Y-98770000D03*
G04 #@! TO.P,P1,24*
G04 #@! TO.N,/GPIO8(SPI0_CE_N)*
X236310000Y-96230000D03*
G04 #@! TO.P,P1,25*
G04 #@! TO.N,GND*
X238850000Y-98770000D03*
G04 #@! TO.P,P1,26*
G04 #@! TO.N,/GPIO7(SPI1_CE_N)*
X238850000Y-96230000D03*
G04 #@! TO.P,P1,27*
G04 #@! TO.N,/ID_SD*
X241390000Y-98770000D03*
G04 #@! TO.P,P1,28*
G04 #@! TO.N,/ID_SC*
X241390000Y-96230000D03*
G04 #@! TO.P,P1,29*
G04 #@! TO.N,/GPIO5*
X243930000Y-98770000D03*
G04 #@! TO.P,P1,30*
G04 #@! TO.N,GND*
X243930000Y-96230000D03*
G04 #@! TO.P,P1,31*
G04 #@! TO.N,/GPIO6*
X246470000Y-98770000D03*
G04 #@! TO.P,P1,32*
G04 #@! TO.N,/GPIO12(PWM0)*
X246470000Y-96230000D03*
G04 #@! TO.P,P1,33*
G04 #@! TO.N,/GPIO13(PWM1)*
X249010000Y-98770000D03*
G04 #@! TO.P,P1,34*
G04 #@! TO.N,GND*
X249010000Y-96230000D03*
G04 #@! TO.P,P1,35*
G04 #@! TO.N,/GPIO19(SPI1_MISO)*
X251550000Y-98770000D03*
G04 #@! TO.P,P1,36*
G04 #@! TO.N,/GPIO16*
X251550000Y-96230000D03*
G04 #@! TO.P,P1,37*
G04 #@! TO.N,/GPIO26*
X254090000Y-98770000D03*
G04 #@! TO.P,P1,38*
G04 #@! TO.N,/GPIO20(SPI1_MOSI)*
X254090000Y-96230000D03*
G04 #@! TO.P,P1,39*
G04 #@! TO.N,GND*
X256630000Y-98770000D03*
G04 #@! TO.P,P1,40*
G04 #@! TO.N,/GPIO21(SPI1_SCK)*
X256630000Y-96230000D03*
G04 #@! TD*
D12*
G04 #@! TO.P,MK4,*
G04 #@! TO.N,*
X261500000Y-146500000D03*
G04 #@! TD*
G04 #@! TO.P,MK3,*
G04 #@! TO.N,*
X203500000Y-146500000D03*
G04 #@! TD*
G04 #@! TO.P,MK2,*
G04 #@! TO.N,*
X261500000Y-97500000D03*
G04 #@! TD*
G04 #@! TO.P,MK1,*
G04 #@! TO.N,*
X203500000Y-97500000D03*
G04 #@! TD*
D13*
G04 #@! TO.N,GND*
G36*
X259672051Y-94764281D02*
X258764281Y-95672051D01*
X258273000Y-96858110D01*
X258273000Y-98141890D01*
X258764281Y-99327949D01*
X259672051Y-100235719D01*
X260858110Y-100727000D01*
X262141890Y-100727000D01*
X263327949Y-100235719D01*
X264235719Y-99327949D01*
X264315001Y-99136545D01*
X264315000Y-144863453D01*
X264235719Y-144672051D01*
X263327949Y-143764281D01*
X262141890Y-143273000D01*
X260858110Y-143273000D01*
X259672051Y-143764281D01*
X258764281Y-144672051D01*
X258273000Y-145858110D01*
X258273000Y-147141890D01*
X258764281Y-148327949D01*
X259672051Y-149235719D01*
X259863453Y-149315000D01*
X205136547Y-149315000D01*
X205327949Y-149235719D01*
X206235719Y-148327949D01*
X206727000Y-147141890D01*
X206727000Y-146067461D01*
X243315000Y-146067461D01*
X243328162Y-146133631D01*
X243328162Y-146133636D01*
X243404282Y-146516319D01*
X243455534Y-146640052D01*
X243506563Y-146763248D01*
X243723336Y-147087672D01*
X243912328Y-147276664D01*
X244236751Y-147493437D01*
X244290876Y-147515856D01*
X244483681Y-147595718D01*
X244866364Y-147671838D01*
X245133636Y-147671838D01*
X245516319Y-147595718D01*
X245763248Y-147493437D01*
X245763249Y-147493436D01*
X246087672Y-147276664D01*
X246276664Y-147087672D01*
X246493437Y-146763249D01*
X246550942Y-146624419D01*
X246595718Y-146516319D01*
X246671838Y-146133636D01*
X246671838Y-146133632D01*
X246685000Y-146067462D01*
X246685000Y-130932538D01*
X246671838Y-130866368D01*
X246671838Y-130866364D01*
X246595718Y-130483681D01*
X246493437Y-130236752D01*
X246493437Y-130236751D01*
X246276664Y-129912328D01*
X246087672Y-129723336D01*
X245763248Y-129506563D01*
X245516319Y-129404282D01*
X245133636Y-129328162D01*
X244866364Y-129328162D01*
X244483681Y-129404282D01*
X244339032Y-129464197D01*
X244236751Y-129506563D01*
X243912328Y-129723336D01*
X243723336Y-129912328D01*
X243506564Y-130236751D01*
X243506563Y-130236752D01*
X243404282Y-130483681D01*
X243328162Y-130866364D01*
X243328162Y-130866373D01*
X243315001Y-130932538D01*
X243315000Y-146067461D01*
X206727000Y-146067461D01*
X206727000Y-145858110D01*
X206235719Y-144672051D01*
X205327949Y-143764281D01*
X204141890Y-143273000D01*
X202858110Y-143273000D01*
X201672051Y-143764281D01*
X200764281Y-144672051D01*
X200685000Y-144863453D01*
X200685000Y-99136547D01*
X200764281Y-99327949D01*
X201672051Y-100235719D01*
X202858110Y-100727000D01*
X204141890Y-100727000D01*
X205327949Y-100235719D01*
X206235719Y-99327949D01*
X206727000Y-98141890D01*
X206727000Y-96858110D01*
X206466829Y-96230000D01*
X206855908Y-96230000D01*
X206971161Y-96809418D01*
X207299375Y-97300625D01*
X207317619Y-97312816D01*
X207272235Y-97321843D01*
X207062191Y-97462191D01*
X206921843Y-97672235D01*
X206872560Y-97920000D01*
X206872560Y-99620000D01*
X206921843Y-99867765D01*
X207062191Y-100077809D01*
X207272235Y-100218157D01*
X207520000Y-100267440D01*
X209220000Y-100267440D01*
X209467765Y-100218157D01*
X209677809Y-100077809D01*
X209818157Y-99867765D01*
X209827184Y-99822381D01*
X209839375Y-99840625D01*
X210330582Y-100168839D01*
X210763744Y-100255000D01*
X211056256Y-100255000D01*
X211489418Y-100168839D01*
X211980625Y-99840625D01*
X212180000Y-99542239D01*
X212379375Y-99840625D01*
X212870582Y-100168839D01*
X213303744Y-100255000D01*
X213596256Y-100255000D01*
X214029418Y-100168839D01*
X214520625Y-99840625D01*
X214720000Y-99542239D01*
X214919375Y-99840625D01*
X215410582Y-100168839D01*
X215843744Y-100255000D01*
X216136256Y-100255000D01*
X216569418Y-100168839D01*
X217060625Y-99840625D01*
X217273843Y-99521522D01*
X217334817Y-99651358D01*
X217763076Y-100041645D01*
X218173110Y-100211476D01*
X218403000Y-100090155D01*
X218403000Y-98897000D01*
X218383000Y-98897000D01*
X218383000Y-98643000D01*
X218403000Y-98643000D01*
X218403000Y-98623000D01*
X218657000Y-98623000D01*
X218657000Y-98643000D01*
X218677000Y-98643000D01*
X218677000Y-98897000D01*
X218657000Y-98897000D01*
X218657000Y-100090155D01*
X218886890Y-100211476D01*
X219296924Y-100041645D01*
X219725183Y-99651358D01*
X219786157Y-99521522D01*
X219999375Y-99840625D01*
X220490582Y-100168839D01*
X220923744Y-100255000D01*
X221216256Y-100255000D01*
X221649418Y-100168839D01*
X222140625Y-99840625D01*
X222340000Y-99542239D01*
X222539375Y-99840625D01*
X223030582Y-100168839D01*
X223463744Y-100255000D01*
X223756256Y-100255000D01*
X224189418Y-100168839D01*
X224680625Y-99840625D01*
X224880000Y-99542239D01*
X225079375Y-99840625D01*
X225570582Y-100168839D01*
X226003744Y-100255000D01*
X226296256Y-100255000D01*
X226729418Y-100168839D01*
X227220625Y-99840625D01*
X227420000Y-99542239D01*
X227619375Y-99840625D01*
X228110582Y-100168839D01*
X228543744Y-100255000D01*
X228836256Y-100255000D01*
X229269418Y-100168839D01*
X229760625Y-99840625D01*
X229960000Y-99542239D01*
X230159375Y-99840625D01*
X230650582Y-100168839D01*
X231083744Y-100255000D01*
X231376256Y-100255000D01*
X231809418Y-100168839D01*
X232300625Y-99840625D01*
X232500000Y-99542239D01*
X232699375Y-99840625D01*
X233190582Y-100168839D01*
X233623744Y-100255000D01*
X233916256Y-100255000D01*
X234349418Y-100168839D01*
X234840625Y-99840625D01*
X235040000Y-99542239D01*
X235239375Y-99840625D01*
X235730582Y-100168839D01*
X236163744Y-100255000D01*
X236456256Y-100255000D01*
X236889418Y-100168839D01*
X237380625Y-99840625D01*
X237593843Y-99521522D01*
X237654817Y-99651358D01*
X238083076Y-100041645D01*
X238493110Y-100211476D01*
X238723000Y-100090155D01*
X238723000Y-98897000D01*
X238703000Y-98897000D01*
X238703000Y-98643000D01*
X238723000Y-98643000D01*
X238723000Y-98623000D01*
X238977000Y-98623000D01*
X238977000Y-98643000D01*
X238997000Y-98643000D01*
X238997000Y-98897000D01*
X238977000Y-98897000D01*
X238977000Y-100090155D01*
X239206890Y-100211476D01*
X239616924Y-100041645D01*
X240045183Y-99651358D01*
X240106157Y-99521522D01*
X240319375Y-99840625D01*
X240810582Y-100168839D01*
X241243744Y-100255000D01*
X241536256Y-100255000D01*
X241969418Y-100168839D01*
X242460625Y-99840625D01*
X242660000Y-99542239D01*
X242859375Y-99840625D01*
X243350582Y-100168839D01*
X243783744Y-100255000D01*
X244076256Y-100255000D01*
X244509418Y-100168839D01*
X245000625Y-99840625D01*
X245200000Y-99542239D01*
X245399375Y-99840625D01*
X245890582Y-100168839D01*
X246323744Y-100255000D01*
X246616256Y-100255000D01*
X247049418Y-100168839D01*
X247540625Y-99840625D01*
X247740000Y-99542239D01*
X247939375Y-99840625D01*
X248430582Y-100168839D01*
X248863744Y-100255000D01*
X249156256Y-100255000D01*
X249589418Y-100168839D01*
X250080625Y-99840625D01*
X250280000Y-99542239D01*
X250479375Y-99840625D01*
X250970582Y-100168839D01*
X251403744Y-100255000D01*
X251696256Y-100255000D01*
X252129418Y-100168839D01*
X252620625Y-99840625D01*
X252820000Y-99542239D01*
X253019375Y-99840625D01*
X253510582Y-100168839D01*
X253943744Y-100255000D01*
X254236256Y-100255000D01*
X254669418Y-100168839D01*
X255160625Y-99840625D01*
X255373843Y-99521522D01*
X255434817Y-99651358D01*
X255863076Y-100041645D01*
X256273110Y-100211476D01*
X256503000Y-100090155D01*
X256503000Y-98897000D01*
X256757000Y-98897000D01*
X256757000Y-100090155D01*
X256986890Y-100211476D01*
X257396924Y-100041645D01*
X257825183Y-99651358D01*
X258071486Y-99126892D01*
X257950819Y-98897000D01*
X256757000Y-98897000D01*
X256503000Y-98897000D01*
X256483000Y-98897000D01*
X256483000Y-98643000D01*
X256503000Y-98643000D01*
X256503000Y-98623000D01*
X256757000Y-98623000D01*
X256757000Y-98643000D01*
X257950819Y-98643000D01*
X258071486Y-98413108D01*
X257825183Y-97888642D01*
X257400214Y-97501353D01*
X257700625Y-97300625D01*
X258028839Y-96809418D01*
X258144092Y-96230000D01*
X258028839Y-95650582D01*
X257700625Y-95159375D01*
X257209418Y-94831161D01*
X256776256Y-94745000D01*
X256483744Y-94745000D01*
X256050582Y-94831161D01*
X255559375Y-95159375D01*
X255360000Y-95457761D01*
X255160625Y-95159375D01*
X254669418Y-94831161D01*
X254236256Y-94745000D01*
X253943744Y-94745000D01*
X253510582Y-94831161D01*
X253019375Y-95159375D01*
X252820000Y-95457761D01*
X252620625Y-95159375D01*
X252129418Y-94831161D01*
X251696256Y-94745000D01*
X251403744Y-94745000D01*
X250970582Y-94831161D01*
X250479375Y-95159375D01*
X250266157Y-95478478D01*
X250205183Y-95348642D01*
X249776924Y-94958355D01*
X249366890Y-94788524D01*
X249137000Y-94909845D01*
X249137000Y-96103000D01*
X249157000Y-96103000D01*
X249157000Y-96357000D01*
X249137000Y-96357000D01*
X249137000Y-96377000D01*
X248883000Y-96377000D01*
X248883000Y-96357000D01*
X248863000Y-96357000D01*
X248863000Y-96103000D01*
X248883000Y-96103000D01*
X248883000Y-94909845D01*
X248653110Y-94788524D01*
X248243076Y-94958355D01*
X247814817Y-95348642D01*
X247753843Y-95478478D01*
X247540625Y-95159375D01*
X247049418Y-94831161D01*
X246616256Y-94745000D01*
X246323744Y-94745000D01*
X245890582Y-94831161D01*
X245399375Y-95159375D01*
X245186157Y-95478478D01*
X245125183Y-95348642D01*
X244696924Y-94958355D01*
X244286890Y-94788524D01*
X244057000Y-94909845D01*
X244057000Y-96103000D01*
X244077000Y-96103000D01*
X244077000Y-96357000D01*
X244057000Y-96357000D01*
X244057000Y-96377000D01*
X243803000Y-96377000D01*
X243803000Y-96357000D01*
X243783000Y-96357000D01*
X243783000Y-96103000D01*
X243803000Y-96103000D01*
X243803000Y-94909845D01*
X243573110Y-94788524D01*
X243163076Y-94958355D01*
X242734817Y-95348642D01*
X242673843Y-95478478D01*
X242460625Y-95159375D01*
X241969418Y-94831161D01*
X241536256Y-94745000D01*
X241243744Y-94745000D01*
X240810582Y-94831161D01*
X240319375Y-95159375D01*
X240120000Y-95457761D01*
X239920625Y-95159375D01*
X239429418Y-94831161D01*
X238996256Y-94745000D01*
X238703744Y-94745000D01*
X238270582Y-94831161D01*
X237779375Y-95159375D01*
X237580000Y-95457761D01*
X237380625Y-95159375D01*
X236889418Y-94831161D01*
X236456256Y-94745000D01*
X236163744Y-94745000D01*
X235730582Y-94831161D01*
X235239375Y-95159375D01*
X235040000Y-95457761D01*
X234840625Y-95159375D01*
X234349418Y-94831161D01*
X233916256Y-94745000D01*
X233623744Y-94745000D01*
X233190582Y-94831161D01*
X232699375Y-95159375D01*
X232486157Y-95478478D01*
X232425183Y-95348642D01*
X231996924Y-94958355D01*
X231586890Y-94788524D01*
X231357000Y-94909845D01*
X231357000Y-96103000D01*
X231377000Y-96103000D01*
X231377000Y-96357000D01*
X231357000Y-96357000D01*
X231357000Y-96377000D01*
X231103000Y-96377000D01*
X231103000Y-96357000D01*
X231083000Y-96357000D01*
X231083000Y-96103000D01*
X231103000Y-96103000D01*
X231103000Y-94909845D01*
X230873110Y-94788524D01*
X230463076Y-94958355D01*
X230034817Y-95348642D01*
X229973843Y-95478478D01*
X229760625Y-95159375D01*
X229269418Y-94831161D01*
X228836256Y-94745000D01*
X228543744Y-94745000D01*
X228110582Y-94831161D01*
X227619375Y-95159375D01*
X227420000Y-95457761D01*
X227220625Y-95159375D01*
X226729418Y-94831161D01*
X226296256Y-94745000D01*
X226003744Y-94745000D01*
X225570582Y-94831161D01*
X225079375Y-95159375D01*
X224866157Y-95478478D01*
X224805183Y-95348642D01*
X224376924Y-94958355D01*
X223966890Y-94788524D01*
X223737000Y-94909845D01*
X223737000Y-96103000D01*
X223757000Y-96103000D01*
X223757000Y-96357000D01*
X223737000Y-96357000D01*
X223737000Y-96377000D01*
X223483000Y-96377000D01*
X223483000Y-96357000D01*
X223463000Y-96357000D01*
X223463000Y-96103000D01*
X223483000Y-96103000D01*
X223483000Y-94909845D01*
X223253110Y-94788524D01*
X222843076Y-94958355D01*
X222414817Y-95348642D01*
X222353843Y-95478478D01*
X222140625Y-95159375D01*
X221649418Y-94831161D01*
X221216256Y-94745000D01*
X220923744Y-94745000D01*
X220490582Y-94831161D01*
X219999375Y-95159375D01*
X219800000Y-95457761D01*
X219600625Y-95159375D01*
X219109418Y-94831161D01*
X218676256Y-94745000D01*
X218383744Y-94745000D01*
X217950582Y-94831161D01*
X217459375Y-95159375D01*
X217260000Y-95457761D01*
X217060625Y-95159375D01*
X216569418Y-94831161D01*
X216136256Y-94745000D01*
X215843744Y-94745000D01*
X215410582Y-94831161D01*
X214919375Y-95159375D01*
X214706157Y-95478478D01*
X214645183Y-95348642D01*
X214216924Y-94958355D01*
X213806890Y-94788524D01*
X213577000Y-94909845D01*
X213577000Y-96103000D01*
X213597000Y-96103000D01*
X213597000Y-96357000D01*
X213577000Y-96357000D01*
X213577000Y-96377000D01*
X213323000Y-96377000D01*
X213323000Y-96357000D01*
X213303000Y-96357000D01*
X213303000Y-96103000D01*
X213323000Y-96103000D01*
X213323000Y-94909845D01*
X213093110Y-94788524D01*
X212683076Y-94958355D01*
X212254817Y-95348642D01*
X212193843Y-95478478D01*
X211980625Y-95159375D01*
X211489418Y-94831161D01*
X211056256Y-94745000D01*
X210763744Y-94745000D01*
X210330582Y-94831161D01*
X209839375Y-95159375D01*
X209640000Y-95457761D01*
X209440625Y-95159375D01*
X208949418Y-94831161D01*
X208516256Y-94745000D01*
X208223744Y-94745000D01*
X207790582Y-94831161D01*
X207299375Y-95159375D01*
X206971161Y-95650582D01*
X206855908Y-96230000D01*
X206466829Y-96230000D01*
X206235719Y-95672051D01*
X205327949Y-94764281D01*
X205136547Y-94685000D01*
X259863453Y-94685000D01*
X259672051Y-94764281D01*
X259672051Y-94764281D01*
G37*
X259672051Y-94764281D02*
X258764281Y-95672051D01*
X258273000Y-96858110D01*
X258273000Y-98141890D01*
X258764281Y-99327949D01*
X259672051Y-100235719D01*
X260858110Y-100727000D01*
X262141890Y-100727000D01*
X263327949Y-100235719D01*
X264235719Y-99327949D01*
X264315001Y-99136545D01*
X264315000Y-144863453D01*
X264235719Y-144672051D01*
X263327949Y-143764281D01*
X262141890Y-143273000D01*
X260858110Y-143273000D01*
X259672051Y-143764281D01*
X258764281Y-144672051D01*
X258273000Y-145858110D01*
X258273000Y-147141890D01*
X258764281Y-148327949D01*
X259672051Y-149235719D01*
X259863453Y-149315000D01*
X205136547Y-149315000D01*
X205327949Y-149235719D01*
X206235719Y-148327949D01*
X206727000Y-147141890D01*
X206727000Y-146067461D01*
X243315000Y-146067461D01*
X243328162Y-146133631D01*
X243328162Y-146133636D01*
X243404282Y-146516319D01*
X243455534Y-146640052D01*
X243506563Y-146763248D01*
X243723336Y-147087672D01*
X243912328Y-147276664D01*
X244236751Y-147493437D01*
X244290876Y-147515856D01*
X244483681Y-147595718D01*
X244866364Y-147671838D01*
X245133636Y-147671838D01*
X245516319Y-147595718D01*
X245763248Y-147493437D01*
X245763249Y-147493436D01*
X246087672Y-147276664D01*
X246276664Y-147087672D01*
X246493437Y-146763249D01*
X246550942Y-146624419D01*
X246595718Y-146516319D01*
X246671838Y-146133636D01*
X246671838Y-146133632D01*
X246685000Y-146067462D01*
X246685000Y-130932538D01*
X246671838Y-130866368D01*
X246671838Y-130866364D01*
X246595718Y-130483681D01*
X246493437Y-130236752D01*
X246493437Y-130236751D01*
X246276664Y-129912328D01*
X246087672Y-129723336D01*
X245763248Y-129506563D01*
X245516319Y-129404282D01*
X245133636Y-129328162D01*
X244866364Y-129328162D01*
X244483681Y-129404282D01*
X244339032Y-129464197D01*
X244236751Y-129506563D01*
X243912328Y-129723336D01*
X243723336Y-129912328D01*
X243506564Y-130236751D01*
X243506563Y-130236752D01*
X243404282Y-130483681D01*
X243328162Y-130866364D01*
X243328162Y-130866373D01*
X243315001Y-130932538D01*
X243315000Y-146067461D01*
X206727000Y-146067461D01*
X206727000Y-145858110D01*
X206235719Y-144672051D01*
X205327949Y-143764281D01*
X204141890Y-143273000D01*
X202858110Y-143273000D01*
X201672051Y-143764281D01*
X200764281Y-144672051D01*
X200685000Y-144863453D01*
X200685000Y-99136547D01*
X200764281Y-99327949D01*
X201672051Y-100235719D01*
X202858110Y-100727000D01*
X204141890Y-100727000D01*
X205327949Y-100235719D01*
X206235719Y-99327949D01*
X206727000Y-98141890D01*
X206727000Y-96858110D01*
X206466829Y-96230000D01*
X206855908Y-96230000D01*
X206971161Y-96809418D01*
X207299375Y-97300625D01*
X207317619Y-97312816D01*
X207272235Y-97321843D01*
X207062191Y-97462191D01*
X206921843Y-97672235D01*
X206872560Y-97920000D01*
X206872560Y-99620000D01*
X206921843Y-99867765D01*
X207062191Y-100077809D01*
X207272235Y-100218157D01*
X207520000Y-100267440D01*
X209220000Y-100267440D01*
X209467765Y-100218157D01*
X209677809Y-100077809D01*
X209818157Y-99867765D01*
X209827184Y-99822381D01*
X209839375Y-99840625D01*
X210330582Y-100168839D01*
X210763744Y-100255000D01*
X211056256Y-100255000D01*
X211489418Y-100168839D01*
X211980625Y-99840625D01*
X212180000Y-99542239D01*
X212379375Y-99840625D01*
X212870582Y-100168839D01*
X213303744Y-100255000D01*
X213596256Y-100255000D01*
X214029418Y-100168839D01*
X214520625Y-99840625D01*
X214720000Y-99542239D01*
X214919375Y-99840625D01*
X215410582Y-100168839D01*
X215843744Y-100255000D01*
X216136256Y-100255000D01*
X216569418Y-100168839D01*
X217060625Y-99840625D01*
X217273843Y-99521522D01*
X217334817Y-99651358D01*
X217763076Y-100041645D01*
X218173110Y-100211476D01*
X218403000Y-100090155D01*
X218403000Y-98897000D01*
X218383000Y-98897000D01*
X218383000Y-98643000D01*
X218403000Y-98643000D01*
X218403000Y-98623000D01*
X218657000Y-98623000D01*
X218657000Y-98643000D01*
X218677000Y-98643000D01*
X218677000Y-98897000D01*
X218657000Y-98897000D01*
X218657000Y-100090155D01*
X218886890Y-100211476D01*
X219296924Y-100041645D01*
X219725183Y-99651358D01*
X219786157Y-99521522D01*
X219999375Y-99840625D01*
X220490582Y-100168839D01*
X220923744Y-100255000D01*
X221216256Y-100255000D01*
X221649418Y-100168839D01*
X222140625Y-99840625D01*
X222340000Y-99542239D01*
X222539375Y-99840625D01*
X223030582Y-100168839D01*
X223463744Y-100255000D01*
X223756256Y-100255000D01*
X224189418Y-100168839D01*
X224680625Y-99840625D01*
X224880000Y-99542239D01*
X225079375Y-99840625D01*
X225570582Y-100168839D01*
X226003744Y-100255000D01*
X226296256Y-100255000D01*
X226729418Y-100168839D01*
X227220625Y-99840625D01*
X227420000Y-99542239D01*
X227619375Y-99840625D01*
X228110582Y-100168839D01*
X228543744Y-100255000D01*
X228836256Y-100255000D01*
X229269418Y-100168839D01*
X229760625Y-99840625D01*
X229960000Y-99542239D01*
X230159375Y-99840625D01*
X230650582Y-100168839D01*
X231083744Y-100255000D01*
X231376256Y-100255000D01*
X231809418Y-100168839D01*
X232300625Y-99840625D01*
X232500000Y-99542239D01*
X232699375Y-99840625D01*
X233190582Y-100168839D01*
X233623744Y-100255000D01*
X233916256Y-100255000D01*
X234349418Y-100168839D01*
X234840625Y-99840625D01*
X235040000Y-99542239D01*
X235239375Y-99840625D01*
X235730582Y-100168839D01*
X236163744Y-100255000D01*
X236456256Y-100255000D01*
X236889418Y-100168839D01*
X237380625Y-99840625D01*
X237593843Y-99521522D01*
X237654817Y-99651358D01*
X238083076Y-100041645D01*
X238493110Y-100211476D01*
X238723000Y-100090155D01*
X238723000Y-98897000D01*
X238703000Y-98897000D01*
X238703000Y-98643000D01*
X238723000Y-98643000D01*
X238723000Y-98623000D01*
X238977000Y-98623000D01*
X238977000Y-98643000D01*
X238997000Y-98643000D01*
X238997000Y-98897000D01*
X238977000Y-98897000D01*
X238977000Y-100090155D01*
X239206890Y-100211476D01*
X239616924Y-100041645D01*
X240045183Y-99651358D01*
X240106157Y-99521522D01*
X240319375Y-99840625D01*
X240810582Y-100168839D01*
X241243744Y-100255000D01*
X241536256Y-100255000D01*
X241969418Y-100168839D01*
X242460625Y-99840625D01*
X242660000Y-99542239D01*
X242859375Y-99840625D01*
X243350582Y-100168839D01*
X243783744Y-100255000D01*
X244076256Y-100255000D01*
X244509418Y-100168839D01*
X245000625Y-99840625D01*
X245200000Y-99542239D01*
X245399375Y-99840625D01*
X245890582Y-100168839D01*
X246323744Y-100255000D01*
X246616256Y-100255000D01*
X247049418Y-100168839D01*
X247540625Y-99840625D01*
X247740000Y-99542239D01*
X247939375Y-99840625D01*
X248430582Y-100168839D01*
X248863744Y-100255000D01*
X249156256Y-100255000D01*
X249589418Y-100168839D01*
X250080625Y-99840625D01*
X250280000Y-99542239D01*
X250479375Y-99840625D01*
X250970582Y-100168839D01*
X251403744Y-100255000D01*
X251696256Y-100255000D01*
X252129418Y-100168839D01*
X252620625Y-99840625D01*
X252820000Y-99542239D01*
X253019375Y-99840625D01*
X253510582Y-100168839D01*
X253943744Y-100255000D01*
X254236256Y-100255000D01*
X254669418Y-100168839D01*
X255160625Y-99840625D01*
X255373843Y-99521522D01*
X255434817Y-99651358D01*
X255863076Y-100041645D01*
X256273110Y-100211476D01*
X256503000Y-100090155D01*
X256503000Y-98897000D01*
X256757000Y-98897000D01*
X256757000Y-100090155D01*
X256986890Y-100211476D01*
X257396924Y-100041645D01*
X257825183Y-99651358D01*
X258071486Y-99126892D01*
X257950819Y-98897000D01*
X256757000Y-98897000D01*
X256503000Y-98897000D01*
X256483000Y-98897000D01*
X256483000Y-98643000D01*
X256503000Y-98643000D01*
X256503000Y-98623000D01*
X256757000Y-98623000D01*
X256757000Y-98643000D01*
X257950819Y-98643000D01*
X258071486Y-98413108D01*
X257825183Y-97888642D01*
X257400214Y-97501353D01*
X257700625Y-97300625D01*
X258028839Y-96809418D01*
X258144092Y-96230000D01*
X258028839Y-95650582D01*
X257700625Y-95159375D01*
X257209418Y-94831161D01*
X256776256Y-94745000D01*
X256483744Y-94745000D01*
X256050582Y-94831161D01*
X255559375Y-95159375D01*
X255360000Y-95457761D01*
X255160625Y-95159375D01*
X254669418Y-94831161D01*
X254236256Y-94745000D01*
X253943744Y-94745000D01*
X253510582Y-94831161D01*
X253019375Y-95159375D01*
X252820000Y-95457761D01*
X252620625Y-95159375D01*
X252129418Y-94831161D01*
X251696256Y-94745000D01*
X251403744Y-94745000D01*
X250970582Y-94831161D01*
X250479375Y-95159375D01*
X250266157Y-95478478D01*
X250205183Y-95348642D01*
X249776924Y-94958355D01*
X249366890Y-94788524D01*
X249137000Y-94909845D01*
X249137000Y-96103000D01*
X249157000Y-96103000D01*
X249157000Y-96357000D01*
X249137000Y-96357000D01*
X249137000Y-96377000D01*
X248883000Y-96377000D01*
X248883000Y-96357000D01*
X248863000Y-96357000D01*
X248863000Y-96103000D01*
X248883000Y-96103000D01*
X248883000Y-94909845D01*
X248653110Y-94788524D01*
X248243076Y-94958355D01*
X247814817Y-95348642D01*
X247753843Y-95478478D01*
X247540625Y-95159375D01*
X247049418Y-94831161D01*
X246616256Y-94745000D01*
X246323744Y-94745000D01*
X245890582Y-94831161D01*
X245399375Y-95159375D01*
X245186157Y-95478478D01*
X245125183Y-95348642D01*
X244696924Y-94958355D01*
X244286890Y-94788524D01*
X244057000Y-94909845D01*
X244057000Y-96103000D01*
X244077000Y-96103000D01*
X244077000Y-96357000D01*
X244057000Y-96357000D01*
X244057000Y-96377000D01*
X243803000Y-96377000D01*
X243803000Y-96357000D01*
X243783000Y-96357000D01*
X243783000Y-96103000D01*
X243803000Y-96103000D01*
X243803000Y-94909845D01*
X243573110Y-94788524D01*
X243163076Y-94958355D01*
X242734817Y-95348642D01*
X242673843Y-95478478D01*
X242460625Y-95159375D01*
X241969418Y-94831161D01*
X241536256Y-94745000D01*
X241243744Y-94745000D01*
X240810582Y-94831161D01*
X240319375Y-95159375D01*
X240120000Y-95457761D01*
X239920625Y-95159375D01*
X239429418Y-94831161D01*
X238996256Y-94745000D01*
X238703744Y-94745000D01*
X238270582Y-94831161D01*
X237779375Y-95159375D01*
X237580000Y-95457761D01*
X237380625Y-95159375D01*
X236889418Y-94831161D01*
X236456256Y-94745000D01*
X236163744Y-94745000D01*
X235730582Y-94831161D01*
X235239375Y-95159375D01*
X235040000Y-95457761D01*
X234840625Y-95159375D01*
X234349418Y-94831161D01*
X233916256Y-94745000D01*
X233623744Y-94745000D01*
X233190582Y-94831161D01*
X232699375Y-95159375D01*
X232486157Y-95478478D01*
X232425183Y-95348642D01*
X231996924Y-94958355D01*
X231586890Y-94788524D01*
X231357000Y-94909845D01*
X231357000Y-96103000D01*
X231377000Y-96103000D01*
X231377000Y-96357000D01*
X231357000Y-96357000D01*
X231357000Y-96377000D01*
X231103000Y-96377000D01*
X231103000Y-96357000D01*
X231083000Y-96357000D01*
X231083000Y-96103000D01*
X231103000Y-96103000D01*
X231103000Y-94909845D01*
X230873110Y-94788524D01*
X230463076Y-94958355D01*
X230034817Y-95348642D01*
X229973843Y-95478478D01*
X229760625Y-95159375D01*
X229269418Y-94831161D01*
X228836256Y-94745000D01*
X228543744Y-94745000D01*
X228110582Y-94831161D01*
X227619375Y-95159375D01*
X227420000Y-95457761D01*
X227220625Y-95159375D01*
X226729418Y-94831161D01*
X226296256Y-94745000D01*
X226003744Y-94745000D01*
X225570582Y-94831161D01*
X225079375Y-95159375D01*
X224866157Y-95478478D01*
X224805183Y-95348642D01*
X224376924Y-94958355D01*
X223966890Y-94788524D01*
X223737000Y-94909845D01*
X223737000Y-96103000D01*
X223757000Y-96103000D01*
X223757000Y-96357000D01*
X223737000Y-96357000D01*
X223737000Y-96377000D01*
X223483000Y-96377000D01*
X223483000Y-96357000D01*
X223463000Y-96357000D01*
X223463000Y-96103000D01*
X223483000Y-96103000D01*
X223483000Y-94909845D01*
X223253110Y-94788524D01*
X222843076Y-94958355D01*
X222414817Y-95348642D01*
X222353843Y-95478478D01*
X222140625Y-95159375D01*
X221649418Y-94831161D01*
X221216256Y-94745000D01*
X220923744Y-94745000D01*
X220490582Y-94831161D01*
X219999375Y-95159375D01*
X219800000Y-95457761D01*
X219600625Y-95159375D01*
X219109418Y-94831161D01*
X218676256Y-94745000D01*
X218383744Y-94745000D01*
X217950582Y-94831161D01*
X217459375Y-95159375D01*
X217260000Y-95457761D01*
X217060625Y-95159375D01*
X216569418Y-94831161D01*
X216136256Y-94745000D01*
X215843744Y-94745000D01*
X215410582Y-94831161D01*
X214919375Y-95159375D01*
X214706157Y-95478478D01*
X214645183Y-95348642D01*
X214216924Y-94958355D01*
X213806890Y-94788524D01*
X213577000Y-94909845D01*
X213577000Y-96103000D01*
X213597000Y-96103000D01*
X213597000Y-96357000D01*
X213577000Y-96357000D01*
X213577000Y-96377000D01*
X213323000Y-96377000D01*
X213323000Y-96357000D01*
X213303000Y-96357000D01*
X213303000Y-96103000D01*
X213323000Y-96103000D01*
X213323000Y-94909845D01*
X213093110Y-94788524D01*
X212683076Y-94958355D01*
X212254817Y-95348642D01*
X212193843Y-95478478D01*
X211980625Y-95159375D01*
X211489418Y-94831161D01*
X211056256Y-94745000D01*
X210763744Y-94745000D01*
X210330582Y-94831161D01*
X209839375Y-95159375D01*
X209640000Y-95457761D01*
X209440625Y-95159375D01*
X208949418Y-94831161D01*
X208516256Y-94745000D01*
X208223744Y-94745000D01*
X207790582Y-94831161D01*
X207299375Y-95159375D01*
X206971161Y-95650582D01*
X206855908Y-96230000D01*
X206466829Y-96230000D01*
X206235719Y-95672051D01*
X205327949Y-94764281D01*
X205136547Y-94685000D01*
X259863453Y-94685000D01*
X259672051Y-94764281D01*
G04 #@! TD*
M02*
